STARTFONT 2.1
FONT -tomabechi-proportional-medium-r-normal--32-320-75-75-P-202-MuleTibetan-2
SIZE 32 75 75
FONTBOUNDINGBOX 47 52 -5 -20
STARTPROPERTIES 26
FOUNDRY "tomabechi"
FAMILY_NAME "provided"
WEIGHT_NAME "medium"
SLANT "r"
SETWIDTH_NAME "normal"
ADD_STYLE_NAME ""
PIXEL_SIZE 32
POINT_SIZE 320
RESOLUTION_X 75
RESOLUTION_Y 75
SPACING "P"
AVERAGE_WIDTH 202
CHARSET_REGISTRY "MuleTibetan"
CHARSET_ENCODING "2"
STRIKEOUT_ASCENT 28
STRIKEOUT_DESCENT 15
X_HEIGHT 22
FACE_NAME "Mule Tibetan (32 point)"
COPYRIGHT "Public Domain, original design by Toru Tomabechi 1999"
_XMBDFED_INFO "Edited with xmbdfed 4.2."
WEIGHT 10
RESOLUTION 75
QUAD_WIDTH 24
DEFAULT_CHAR 8481
FONT_ASCENT 30
FONT_DESCENT 14
ENDPROPERTIES
CHARS 352
STARTCHAR char8481
ENCODING 8481
SWIDTH 11000 0
DWIDTH 22 0
BBX 19 18 1 2
BITMAP
FFFFE0
800020
800020
800020
800020
800020
800020
800020
800020
800020
800020
800020
800020
800020
800020
800020
800020
FFFFE0
ENDCHAR
STARTCHAR char9040
ENCODING 8482
SWIDTH 10000 0
DWIDTH 20 0
BBX 15 6 2 16
BITMAP
FFFE
FFFE
0780
0300
0100
0100
ENDCHAR
STARTCHAR char9041
ENCODING 8483
SWIDTH 12000 0
DWIDTH 24 0
BBX 19 14 4 4
BITMAP
1FFF00
1FFF00
300000
21FE00
7F8380
078380
00C300
000600
601C00
FFF000
7000E0
0E0380
03FE00
00F800
ENDCHAR
STARTCHAR char9042
ENCODING 8484
SWIDTH 12000 0
DWIDTH 24 0
BBX 14 9 10 9
BITMAP
3E00
01E0
003C
000C
F000
0E00
01C0
0030
000C
ENDCHAR
STARTCHAR char9043
ENCODING 8485
SWIDTH 12000 0
DWIDTH 24 0
BBX 24 13 0 5
BITMAP
0007E0
0018F8
00103E
C0300E
F83F07
3E0F03
0F800C
03F070
007F80
E00003
3C001C
0781E0
00FE00
ENDCHAR
STARTCHAR char8496
ENCODING 8496
SWIDTH 11000 0
DWIDTH 22 0
BBX 22 29 -1 3
BITMAP
00E000
01101C
0110F8
00E3F0
0007C0
F00E00
7F1800
3FA000
01C000
002000
38FE38
38FE78
307878
10FC38
109C18
111C18
11CE18
11E618
103318
103318
101118
101098
186088
0FE048
0FC048
038028
000018
000008
000008
ENDCHAR
STARTCHAR char8497
ENCODING 8497
SWIDTH 10000 0
DWIDTH 20 0
BBX 18 19 1 2
BITMAP
E3F800
E3F800
C1E000
43F000
427000
447000
473800
479800
40D800
40CC00
404400
404600
61C200
3F8100
3F0100
0E0080
000080
000040
000040
ENDCHAR
STARTCHAR char8498
ENCODING 8498
SWIDTH 10000 0
DWIDTH 20 0
BBX 18 38 1 -8
BITMAP
010000
010000
010000
010000
008000
008000
024000
044000
06D000
03E000
1F8000
000380
000440
000440
1FC380
3FC000
7FC000
41C000
80C000
804000
804380
804440
C04440
C00380
47C000
4FC000
07E000
003000
101000
080000
040E00
001F00
021F80
010080
00C000
00F080
007F80
003F00
ENDCHAR
STARTCHAR char8498
ENCODING 8499
SWIDTH 10000 0
DWIDTH 20 0
BBX 18 38 1 -8
BITMAP
010000
010000
010000
010000
008000
008000
024000
044000
06D000
03E000
1F8000
000380
000440
000440
1FC380
3FC000
7FC000
41C7C0
80C000
804000
804380
804440
C04440
C00380
47C000
4FC000
07E000
003000
101000
080000
040E00
001F00
021F80
010080
00C000
00F080
007F80
003F00
ENDCHAR
STARTCHAR char8500
ENCODING 8500
SWIDTH 16000 0
DWIDTH 32 0
BBX 31 19 1 2
BITMAP
00000780
00001FE0
00007FF0
F8007878
0700703C
0080E01C
0060600E
0030600E
000C300E
0007001C
0003C03C
0000FFF8
00047FF0
00021FE4
0003801C
0001E078
0000FFF0
00007FE0
00000F00
ENDCHAR
STARTCHAR char8501
ENCODING 8501
SWIDTH 9000 0
DWIDTH 18 0
BBX 18 19 0 2
BITMAP
00F000
07FC00
0FFE00
0F0F00
1E0780
1C0380
1C0380
0C01C0
840380
400380
700F80
3FFF00
8FFE00
43F880
600300
3C1F00
1FFE00
0FF800
01E000
ENDCHAR
STARTCHAR char8502
ENCODING 8502
SWIDTH 15500 0
DWIDTH 31 0
BBX 29 31 1 -10
BITMAP
00001E00
00007F80
0001FFC0
F001E1E0
0C01C0F0
02038070
01818038
00C18038
0030C038
001C0070
000F00F0
0003FFE0
0011FFC0
00087F90
000E0070
000781E0
0003FFC0
0001FF80
00003C00
00004180
00003F00
00001C00
00001C00
00001C00
00000800
00000800
00000800
00000800
00000800
00000800
00000800
ENDCHAR
STARTCHAR char8503
ENCODING 8503
SWIDTH 20500 0
DWIDTH 41 0
BBX 40 17 1 4
BITMAP
00003C0603
0000FF0603
0001FFC673
F003E3E6FB
0C0380E6FB
0303007673
0083007603
0043007603
0031807603
001C00F603
000F01E603
0003FFE673
0001FFC6FB
00007F06FB
0000000673
0000000603
0000000602
ENDCHAR
STARTCHAR char8504
ENCODING 8504
SWIDTH 5500 0
DWIDTH 11 0
BBX 9 35 1 -11
BITMAP
0080
0080
3180
7180
DB00
9E00
0180
7300
DE00
0180
7300
DE00
0000
3E00
1C00
1C00
1C00
0800
0800
0800
0800
0800
0800
0800
0800
0800
0800
0800
0800
0800
0800
0800
0800
0800
0800
ENDCHAR
STARTCHAR char8505
ENCODING 8505
SWIDTH 8000 0
DWIDTH 16 0
BBX 14 28 1 -6
BITMAP
0380
0FE0
1FF8
3878
301C
601C
C01C
8018
0010
0020
1E40
3F80
0380
00C0
00E0
1E60
3F30
2790
01D8
00C8
006C
0064
0034
0010
0018
0008
000C
0004
ENDCHAR
STARTCHAR char8506
ENCODING 8506
SWIDTH 11500 0
DWIDTH 23 0
BBX 21 32 1 -10
BITMAP
003800
40FE00
41FF80
438780
4301C0
4601C0
4C01C0
480180
C00100
800200
81E400
83F800
803800
800C00
800E00
81E600
83F300
827900
801D80
800C80
8006C0
800640
800340
800100
400180
400080
4000C0
400040
600000
300018
1E0038
03FFF8
ENDCHAR
STARTCHAR char58
ENCODING 8507
SWIDTH 3500 0
DWIDTH 7 0
BBX 5 4 1 18
BITMAP
F8
F8
70
20
ENDCHAR
STARTCHAR char58
ENCODING 8508
SWIDTH 3500 0
DWIDTH 7 0
BBX 5 4 1 18
BITMAP
F8
F8
70
20
ENDCHAR
STARTCHAR char59
ENCODING 8509
SWIDTH 2500 0
DWIDTH 5 0
BBX 3 36 1 -14
BITMAP
E0
C0
C0
C0
C0
C0
C0
C0
C0
C0
C0
C0
80
80
80
80
80
80
80
80
80
80
80
80
80
80
80
80
80
80
80
80
80
80
80
80
ENDCHAR
STARTCHAR char60
ENCODING 8510
SWIDTH 6500 0
DWIDTH 13 0
BBX 11 36 1 -14
BITMAP
E0E0
C0C0
C0C0
C0C0
C0C0
C0C0
C0C0
C0C0
C0C0
C0C0
C0C0
C0C0
C0C0
8080
8080
8080
8080
8080
8080
8080
8080
8080
8080
8080
8080
8080
8080
8080
8080
8080
8080
8080
8080
8080
8080
8080
ENDCHAR
STARTCHAR char61
ENCODING 8511
SWIDTH 3500 0
DWIDTH 7 0
BBX 5 36 1 -14
BITMAP
F8
70
20
00
70
70
20
20
20
20
20
20
20
20
20
20
20
20
20
20
20
20
20
20
20
20
20
20
20
20
20
20
20
20
20
20
ENDCHAR
STARTCHAR char62
ENCODING 8512
SWIDTH 4000 0
DWIDTH 8 0
BBX 6 37 1 -14
BITMAP
1C
FC
E0
00
78
30
00
00
30
30
30
30
30
30
30
30
30
30
20
20
20
20
20
20
20
20
20
20
20
20
20
20
20
20
20
20
20
ENDCHAR
STARTCHAR char63
ENCODING 8513
SWIDTH 4000 0
DWIDTH 8 0
BBX 6 36 1 -14
BITMAP
CC
48
00
30
30
00
00
30
30
30
30
30
30
30
30
30
30
30
30
20
20
20
20
20
20
20
20
20
20
20
20
20
20
20
20
20
ENDCHAR
STARTCHAR char8514
ENCODING 8514
SWIDTH 14500 0
DWIDTH 29 0
BBX 27 37 1 -14
BITMAP
00040000
00040000
00040000
00060000
00030000
00098000
00198000
00198000
004F4000
00208000
001F0000
00000000
FCE677E0
1C666780
04402600
001F8000
001F8000
00000000
00070000
00070000
00070000
00070000
00070000
00070000
00070000
00070000
00070000
00070000
00070000
00020000
00020000
00020000
00020000
00020000
00020000
00020000
00020000
ENDCHAR
STARTCHAR char8515
ENCODING 8515
SWIDTH 13000 0
DWIDTH 26 0
BBX 24 25 1 -3
BITMAP
001C00
001C00
000000
000000
01FF80
03FFC0
0700E0
0E0070
1C0038
180018
D8001B
D8001B
D8001B
180018
180018
1C0038
0E0070
0700E0
0381C0
01FF80
00FF00
000000
000000
001C00
001C00
ENDCHAR
STARTCHAR char64
ENCODING 8516
SWIDTH 4500 0
DWIDTH 9 0
BBX 7 20 1 2
BITMAP
38
7C
C6
C6
C6
7C
38
00
00
FE
FE
00
00
38
7C
C6
C6
C6
7C
38
ENDCHAR
STARTCHAR char8517
ENCODING 8517
SWIDTH 11000 0
DWIDTH 22 0
BBX 20 25 1 -3
BITMAP
FFFFF0
FFFFF0
C00030
FF9FF0
FF9FF0
C00030
C00030
CF9F30
CF9F30
C00030
C00030
FFFFF0
FFFFF0
C00030
FC1830
1F8E30
01E730
0073B0
0018F0
000E70
000330
0001B0
0000F0
000070
000010
ENDCHAR
STARTCHAR char8518
ENCODING 8518
SWIDTH 9500 0
DWIDTH 19 0
BBX 17 27 1 -5
BITMAP
FF8000
FF8000
C18000
DF8000
DF8000
D80000
DFFF80
DFFF80
C00180
C00180
FFCF80
FFCF80
00CC00
FFCC00
FFCC00
C00C00
FFFC00
FFFC00
000000
FFFF80
FFFF80
018000
FFFF80
FFFF80
C00180
FFFF80
FFFF80
ENDCHAR
STARTCHAR char8519
ENCODING 8519
SWIDTH 12500 0
DWIDTH 25 0
BBX 23 16 1 2
BITMAP
000602
002CC4
00698C
00C910
0289F8
048F90
04F810
34F810
27CC30
26CC20
28C460
38CFC0
307F00
3FF800
700000
800000
ENDCHAR
STARTCHAR char8520
ENCODING 8520
SWIDTH 6500 0
DWIDTH 13 0
BBX 18 17 -5 -6
BITMAP
000040
000040
01F0C0
011880
010980
018700
00E600
1E3C00
330800
319800
18B000
0FE000
030000
020000
020000
1C0000
F00000
ENDCHAR
STARTCHAR char8521
ENCODING 8521
SWIDTH 9500 0
DWIDTH 19 0
BBX 5 12 7 -6
BITMAP
F8
F8
70
20
20
20
20
20
20
20
20
20
ENDCHAR
STARTCHAR char8522
ENCODING 8522
SWIDTH 5000 0
DWIDTH 10 0
BBX 8 8 1 7
BITMAP
3C
7E
C3
C3
C3
C3
7E
3C
ENDCHAR
STARTCHAR char8523
ENCODING 8523
SWIDTH 11000 0
DWIDTH 22 0
BBX 20 8 1 7
BITMAP
3C03C0
7E07E0
C30C30
C30C30
C30C30
C30C30
7E07E0
3C03C0
ENDCHAR
STARTCHAR char8524
ENCODING 8524
SWIDTH 11000 0
DWIDTH 22 0
BBX 20 18 1 3
BITMAP
00F000
01F800
030C00
030C00
030C00
030C00
01F800
00F000
000000
000000
3C03C0
7E07E0
C30C30
C30C30
C30C30
C30C30
7E07E0
3C03C0
ENDCHAR
STARTCHAR char8526
ENCODING 8525
SWIDTH 6000 0
DWIDTH 12 0
BBX 10 10 1 7
BITMAP
C0C0
6180
3300
1E00
0C00
0E00
1B00
3180
60C0
C040
ENDCHAR
STARTCHAR char8526
ENCODING 8526
SWIDTH 12000 0
DWIDTH 24 0
BBX 22 10 1 7
BITMAP
C0CC0C
618618
330330
1E01E0
0C00C0
0E00E0
1B01B0
318318
60C60C
C04C04
ENDCHAR
STARTCHAR char8527
ENCODING 8527
SWIDTH 11500 0
DWIDTH 23 0
BBX 21 10 1 7
BITMAP
001818
3C0C30
7E0660
C303C0
C30180
C301C0
C30360
7E0630
3C0C18
001808
ENDCHAR
STARTCHAR char48
ENCODING 8528
SWIDTH 7500 0
DWIDTH 15 0
BBX 13 15 1 7
BITMAP
0380
0FE0
1FF0
3070
6038
4018
4018
C018
C018
E018
6010
7030
3FE0
1FC0
0700
ENDCHAR
STARTCHAR char49
ENCODING 8529
SWIDTH 7500 0
DWIDTH 15 0
BBX 13 20 1 2
BITMAP
0F80
3FC0
78E0
7060
E070
E030
E038
6038
2038
1038
0030
0070
0060
00C0
00C0
0180
0100
0200
0400
0800
ENDCHAR
STARTCHAR char50
ENCODING 8530
SWIDTH 7500 0
DWIDTH 15 0
BBX 13 19 1 4
BITMAP
0780
0FC0
1FE0
38F0
3070
6030
4030
8030
8020
0060
0E40
1F80
3F80
01C0
00C0
0060
0030
0010
0008
ENDCHAR
STARTCHAR char51
ENCODING 8531
SWIDTH 8000 0
DWIDTH 16 0
BBX 14 21 1 2
BITMAP
0380
0FC0
1FE0
3070
4038
8038
0070
0780
0070
0038
0038
0038
1EF0
3FC0
7F80
60C0
0060
0030
0010
0008
0004
ENDCHAR
STARTCHAR char52
ENCODING 8532
SWIDTH 8500 0
DWIDTH 17 0
BBX 15 12 1 10
BITMAP
0400
0E00
1E00
7300
E180
E0F8
7000
3800
1C00
0E00
07E0
03FE
ENDCHAR
STARTCHAR char53
ENCODING 8533
SWIDTH 7500 0
DWIDTH 15 0
BBX 13 15 1 7
BITMAP
4000
C020
C060
C060
C060
C060
C060
C060
E060
E060
70E0
7FA0
3F30
1C10
0008
ENDCHAR
STARTCHAR char54
ENCODING 8534
SWIDTH 9000 0
DWIDTH 18 0
BBX 16 12 1 9
BITMAP
8000
8000
C000
4000
40E0
61F0
31DC
30C6
1C42
0FE1
07E1
03C0
ENDCHAR
STARTCHAR char55
ENCODING 8535
SWIDTH 9000 0
DWIDTH 18 0
BBX 16 14 1 8
BITMAP
0002
0002
0003
0003
0003
0003
0603
1F03
3303
4307
4106
811E
037C
03F0
ENDCHAR
STARTCHAR char56
ENCODING 8536
SWIDTH 8000 0
DWIDTH 16 0
BBX 14 15 1 7
BITMAP
0400
0C00
0800
1800
1800
3000
3000
7000
FF00
FF80
01C0
0060
0030
0018
0004
ENDCHAR
STARTCHAR char57
ENCODING 8537
SWIDTH 7500 0
DWIDTH 15 0
BBX 13 16 1 7
BITMAP
0380
0FE0
3FF0
7830
F030
E0E0
E180
E108
61F0
3000
3000
1800
0C00
0600
0380
00E0
ENDCHAR
STARTCHAR char49
ENCODING 8538
SWIDTH 12000 0
DWIDTH 24 0
BBX 22 20 1 2
BITMAP
01F000
07F800
0F1C00
0E0C00
1C0E00
1CFF00
1F87F0
1C0718
E40704
02073C
000618
000E00
000C00
001800
001800
003000
002000
004000
008000
010000
ENDCHAR
STARTCHAR char50
ENCODING 8539
SWIDTH 12000 0
DWIDTH 24 0
BBX 22 19 1 4
BITMAP
007800
00FC00
01FE00
038F00
030700
060300
04FF00
0F83F0
1C0218
E00604
00E43C
01F818
03F800
001C00
000C00
000600
000300
000100
000080
ENDCHAR
STARTCHAR char51
ENCODING 8540
SWIDTH 12000 0
DWIDTH 24 0
BBX 22 21 1 2
BITMAP
007000
01F800
03FC00
060E00
080700
100700
000E00
00FF00
078EF0
1C0718
E00704
00073C
03DE18
07F800
0FF000
0C1800
000C00
000600
000200
000100
000080
ENDCHAR
STARTCHAR char52
ENCODING 8541
SWIDTH 12000 0
DWIDTH 24 0
BBX 22 12 1 10
BITMAP
008000
01C000
03C000
0E6080
1CFF00
1F9FF0
1E0018
E70004
03803C
01C018
00FC00
007FC0
ENDCHAR
STARTCHAR char53
ENCODING 8542
SWIDTH 12000 0
DWIDTH 24 0
BBX 22 15 1 7
BITMAP
040000
0C0200
0C0600
0C0600
0C0600
0CFF00
0F86F0
1C0618
EE0604
0E063C
070E18
07FA00
03F300
01C100
000080
ENDCHAR
STARTCHAR char54
ENCODING 8543
SWIDTH 12000 0
DWIDTH 24 0
BBX 22 12 1 9
BITMAP
400000
400000
600000
200000
207000
30FF00
1FEEF0
1C6318
EE2104
07F0BC
03F098
01E000
ENDCHAR
STARTCHAR char55
ENCODING 8544
SWIDTH 12500 0
DWIDTH 25 0
BBX 23 14 1 8
BITMAP
000080
000080
0000C0
0000C0
0000C0
0000C0
0180C0
07C0C0
0CFFC0
13C1F8
1E418C
E04782
00DF1E
00FC0C
ENDCHAR
STARTCHAR char56
ENCODING 8545
SWIDTH 12000 0
DWIDTH 24 0
BBX 22 15 1 7
BITMAP
004000
00C000
008000
018000
018000
030000
03FF00
0780F0
3FF018
CFF804
001C3C
000618
000300
000180
000040
ENDCHAR
STARTCHAR char57
ENCODING 8546
SWIDTH 12000 0
DWIDTH 24 0
BBX 22 16 1 7
BITMAP
003800
00FE00
03FF00
078300
0F0300
0EFF00
0F99F0
1E1098
E61F04
03003C
030018
018000
00C000
006000
003800
000E00
ENDCHAR
STARTCHAR char48
ENCODING 8547
SWIDTH 12500 0
DWIDTH 25 0
BBX 23 15 1 8
BITMAP
001C00
007F00
00FF80
018380
0301C0
02FCC0
0F83FC
3E00C6
C600CE
0700C0
030080
038180
01FF00
00FE00
003800
ENDCHAR
STARTCHAR char8548
ENCODING 8548
SWIDTH 6000 0
DWIDTH 12 0
BBX 8 19 2 3
BITMAP
FE
7C
38
10
00
00
00
F0
FC
FE
06
01
00
00
F0
FC
FE
06
01
ENDCHAR
STARTCHAR char115
ENCODING 8549
SWIDTH 10000 0
DWIDTH 20 0
BBX 11 10 5 -14
BITMAP
1C00
3E00
6300
4100
6300
3E20
9CC0
C180
7F00
1C00
ENDCHAR
STARTCHAR char8550
ENCODING 8550
SWIDTH 10500 0
DWIDTH 21 0
BBX 19 20 1 2
BITMAP
004000
00E000
00E000
00E000
004000
000000
000000
000000
400040
E000E0
E000E0
E000E0
400040
000000
000000
004000
00E000
00E000
00E000
004000
ENDCHAR
STARTCHAR char115
ENCODING 8551
SWIDTH 9500 0
DWIDTH 19 0
BBX 7 7 7 -14
BITMAP
38
7C
C6
82
C6
7C
38
ENDCHAR
STARTCHAR char8552
ENCODING 8552
SWIDTH 9500 0
DWIDTH 19 0
BBX 17 12 1 11
BITMAP
000180
000180
000180
0F0180
3BC180
70C180
60C180
E0C180
C18380
030700
061E00
0FF800
ENDCHAR
STARTCHAR char8553
ENCODING 8553
SWIDTH 12000 0
DWIDTH 24 0
BBX 7 5 17 16
BITMAP
0E
3E
60
40
C0
ENDCHAR
STARTCHAR char8554
ENCODING 8554
SWIDTH 16000 0
DWIDTH 32 0
BBX 30 12 1 10
BITMAP
00000018
F000003C
0C03C024
0386633C
00C03798
00603480
00303780
00186318
000F803C
00000024
0000003C
00000018
ENDCHAR
STARTCHAR char8554
ENCODING 8555
SWIDTH 16000 0
DWIDTH 32 0
BBX 30 12 1 10
BITMAP
60000000
F000003C
900F00C0
F3198700
67B00C00
04B01800
07B03000
63186000
F007C000
90000000
F0000000
60000000
ENDCHAR
STARTCHAR char8556
ENCODING 8556
SWIDTH 12500 0
DWIDTH 25 0
BBX 24 45 0 -13
BITMAP
000001
000002
000006
00003C
000070
000060
01FFC0
078000
0E0000
1C0000
1C0000
1C0000
1C0000
1C0000
1C0000
1C0000
1C0000
1C0000
1C0000
1C0000
1C0000
1C0000
1C0000
1C0000
1C0000
1C0000
1C0000
1C0000
1C0000
1C0000
1C0000
1C0000
1C0000
1C0000
1C0000
1C0000
1C0000
1C0000
1C0000
1C0000
1C0000
1C0000
3C0000
700000
800000
ENDCHAR
STARTCHAR char8556
ENCODING 8557
SWIDTH 12500 0
DWIDTH 25 0
BBX 24 45 0 -13
BITMAP
800000
400000
600000
3C0000
0E0000
060000
03FF80
0001E0
000070
000038
000038
000038
000038
000038
000038
000038
000038
000038
000038
000038
000038
000038
000038
000038
000038
000038
000038
000038
000038
000038
000038
000038
000038
000038
000038
000038
000038
000038
000038
000038
000038
000038
00003C
00000E
000001
ENDCHAR
STARTCHAR char8558
ENCODING 8558
SWIDTH 5500 0
DWIDTH 11 0
BBX 11 18 0 -7
BITMAP
01E0
0FC0
1E00
3800
3000
6000
6000
E000
C000
C000
C000
C000
C000
C000
C000
C000
C000
C000
ENDCHAR
STARTCHAR char8559
ENCODING 8559
SWIDTH 5500 0
DWIDTH 11 0
BBX 11 18 0 -7
BITMAP
F000
7E00
0F00
0380
0180
00C0
00C0
00E0
0060
0060
0060
0060
0060
0060
0060
0060
0060
0060
ENDCHAR
STARTCHAR char65
ENCODING 8737
SWIDTH 9500 0
DWIDTH 19 0
BBX 17 26 1 -4
BITMAP
3FFF80
7FFF80
01C380
02C380
02C380
024180
046180
0C2180
782180
F82180
C01180
801080
001080
000880
000880
000880
000080
000080
000080
000080
000080
000080
000080
000080
000080
000080
ENDCHAR
STARTCHAR char66
ENCODING 8738
SWIDTH 9500 0
DWIDTH 19 0
BBX 17 26 1 -4
BITMAP
1FFF80
3FFF00
E1FF00
C1C780
C18380
C18180
C30180
C30180
C20080
C20080
C20080
C26080
C3F880
C3FC80
C01E80
C00380
C00080
800000
800000
800000
800000
800000
800000
800000
800000
800000
ENDCHAR
STARTCHAR char67
ENCODING 8739
SWIDTH 9000 0
DWIDTH 18 0
BBX 16 26 1 -4
BITMAP
7FFF
FFFF
1EE3
38E3
3063
6073
4033
8033
8033
9C33
7F13
FF93
C3D1
0051
0031
0011
0011
0001
0001
0001
0001
0001
0001
0001
0001
0001
ENDCHAR
STARTCHAR char68
ENCODING 8740
SWIDTH 9500 0
DWIDTH 19 0
BBX 17 33 1 -11
BITMAP
7FFF00
FFFF00
1FE300
306300
606300
C03300
803300
BE3300
FF1300
FF9100
00D100
003100
001100
000100
1FFC00
1FFC00
1FFC00
0E0000
080000
100C00
103F00
207F80
3F8780
0F8380
03C380
01C300
00C300
006200
002400
000C00
000800
001000
002000
ENDCHAR
STARTCHAR char69
ENCODING 8741
SWIDTH 9000 0
DWIDTH 18 0
BBX 16 19 1 3
BITMAP
7FFE
FFFC
7C00
7000
6000
6000
4000
4000
4000
8000
9F80
FFE0
FFF0
E0F8
001C
000C
0006
0002
0001
ENDCHAR
STARTCHAR char70
ENCODING 8742
SWIDTH 9000 0
DWIDTH 18 0
BBX 16 19 1 3
BITMAP
3FF8
3FF8
0F80
0300
0100
0100
0100
03E0
04F8
083E
301F
E00F
3007
3803
1803
1C02
0E04
0F88
07F0
ENDCHAR
STARTCHAR char71
ENCODING 8743
SWIDTH 9500 0
DWIDTH 19 0
BBX 17 19 1 3
BITMAP
3FFE00
3FFE00
07C000
018000
008000
008000
07F000
1FFE00
3FFF00
7FFF80
608180
C08080
808080
808080
808080
808080
408100
21E300
1E1C00
ENDCHAR
STARTCHAR char72
ENCODING 8744
SWIDTH 9500 0
DWIDTH 19 0
BBX 17 21 1 1
BITMAP
3FFF00
7FFF00
3C0000
380000
300000
300000
600000
47FC00
5FFC00
7FFC00
400000
400000
400000
C1C000
8FF000
BFF800
FFFC00
000600
000300
000100
000080
ENDCHAR
STARTCHAR char8745
ENCODING 8745
SWIDTH 12000 0
DWIDTH 24 0
BBX 20 18 2 0
BITMAP
FFFFF0
FFFFF0
FFFFF0
FFFFF0
FFFFF0
FFFFF0
FFFFF0
FFFFF0
FFFFF0
FFFFF0
FFFFF0
FFFFF0
FFFFF0
FFFFF0
FFFFF0
FFFFF0
FFFFF0
FFFFF0
ENDCHAR
STARTCHAR char74
ENCODING 8746
SWIDTH 10000 0
DWIDTH 20 0
BBX 18 28 1 -6
BITMAP
0FF800
1FF800
31F800
401C00
401800
800800
C00800
E07E00
78FF00
391F80
320780
0203C0
0601C0
0701C0
07C1C0
03F1C0
01E180
000180
000300
000300
000600
000400
000C00
000800
001000
001000
002000
004000
ENDCHAR
STARTCHAR char75
ENCODING 8747
SWIDTH 8500 0
DWIDTH 17 0
BBX 15 30 1 -8
BITMAP
7FFE
3FFE
000C
000E
000E
000E
000C
060C
3FCC
7FE8
7818
F010
F010
E010
6000
7000
3000
3000
1000
1800
0800
0400
0400
0200
0200
0100
0100
0080
0040
0040
ENDCHAR
STARTCHAR char76
ENCODING 8748
SWIDTH 8000 0
DWIDTH 16 0
BBX 14 21 1 1
BITMAP
FF80
FFE0
C010
C008
C008
C00C
F01C
8FF8
87F8
80E0
8010
8008
8008
8004
81F4
87FC
9FFC
BC00
F000
C000
8000
ENDCHAR
STARTCHAR char77
ENCODING 8749
SWIDTH 9000 0
DWIDTH 18 0
BBX 16 30 1 -8
BITMAP
1FFF
1FFF
00FC
001C
000E
0006
0002
0001
0001
01FD
07FF
0FFF
1F80
1E00
1800
3800
3000
3000
2000
2000
6000
6000
4000
4000
4000
4000
4000
8000
8000
8000
ENDCHAR
STARTCHAR char78
ENCODING 8750
SWIDTH 10000 0
DWIDTH 20 0
BBX 18 36 1 -14
BITMAP
1FFF00
0FFF80
007E00
000E00
000300
000100
000080
01FE80
07FF80
07FF80
0FC000
0E0000
1C0000
180000
3FFE00
2FFE00
5FFC00
470000
8C0000
080C00
103F00
087F80
0FC7C0
0FC1C0
03C1C0
00E180
006100
002300
002200
000400
000800
000800
001000
002000
004000
008000
ENDCHAR
STARTCHAR char79
ENCODING 8751
SWIDTH 9500 0
DWIDTH 19 0
BBX 17 33 1 -11
BITMAP
1FFE00
0FFE00
00FC00
00E000
004000
004000
000000
00FC00
01FE00
03FF00
07C100
0F0080
0F0080
1D0080
188080
18C100
103E00
300000
300000
200000
200000
200000
200000
400000
400000
400000
400000
400000
400000
800000
800000
800000
800000
ENDCHAR
STARTCHAR char80
ENCODING 8752
SWIDTH 8500 0
DWIDTH 17 0
BBX 15 29 1 -7
BITMAP
FFFC
FFFC
6000
E000
E000
E000
6000
60C0
67F8
2FFC
303E
101E
100E
100E
100E
080E
000C
0018
0018
0010
0030
0020
0040
0040
0080
0080
0100
0100
0200
ENDCHAR
STARTCHAR char81
ENCODING 8753
SWIDTH 8000 0
DWIDTH 16 0
BBX 14 21 1 1
BITMAP
07FC
1FFC
201C
400C
400C
C01C
E02C
7FC4
7F84
1C04
3004
6004
4004
8004
BE04
FF84
FFE4
00F4
003C
000C
0004
ENDCHAR
STARTCHAR char82
ENCODING 8754
SWIDTH 9500 0
DWIDTH 19 0
BBX 17 32 1 -10
BITMAP
7FFC00
7FFC00
1F8000
3C0000
300000
200000
400000
400000
800000
9FC000
FFF000
FFF800
01F800
003C00
001C00
000C00
000600
000600
000600
000200
000200
000200
000300
000100
000100
000100
000100
000080
000080
000080
000080
000080
ENDCHAR
STARTCHAR char83
ENCODING 8755
SWIDTH 9500 0
DWIDTH 19 0
BBX 17 36 1 -14
BITMAP
7FFC00
7FFC00
1F8000
380000
300000
400000
470000
BFE000
FFF800
1FF800
007C00
001C00
000600
000600
1FFF00
3FF900
3FF880
0C0000
100000
201800
407E00
40FF00
7F0F00
1F0700
078300
038300
01C600
00C400
004C00
000800
001000
002000
002000
004000
008000
010000
ENDCHAR
STARTCHAR char84
ENCODING 8756
SWIDTH 9000 0
DWIDTH 18 0
BBX 16 33 1 -11
BITMAP
7FF8
7FF8
1F80
0700
0300
0100
0100
1F00
7FC0
FFE0
C1F0
80F0
80F8
80B8
8098
410C
3E0C
000C
0004
0004
0006
0002
0002
0002
0002
0001
0001
0001
0001
0001
0001
0001
0001
ENDCHAR
STARTCHAR char85
ENCODING 8757
SWIDTH 9500 0
DWIDTH 19 0
BBX 17 20 1 2
BITMAP
7FE380
7FC380
1C0380
180180
300180
200180
600180
400080
400080
400080
8E0080
BFC080
FFF080
7FF880
001C80
000680
000280
000180
000080
000080
ENDCHAR
STARTCHAR char86
ENCODING 8758
SWIDTH 9500 0
DWIDTH 19 0
BBX 17 19 1 3
BITMAP
7FE380
7FC380
1C0380
180180
300F80
201D80
603180
406080
404080
408080
8E8080
BFC080
FFF080
7FF880
001C80
000480
000280
000180
000080
ENDCHAR
STARTCHAR char87
ENCODING 8759
SWIDTH 9500 0
DWIDTH 19 0
BBX 17 19 1 3
BITMAP
7FFF80
7FFF80
1C0380
180180
300180
200180
600180
400080
400080
800080
8E0080
BFC080
FFF080
7FF880
001C80
000680
000280
000180
000080
ENDCHAR
STARTCHAR char88
ENCODING 8760
SWIDTH 10000 0
DWIDTH 20 0
BBX 18 36 1 -14
BITMAP
7FFF80
7FFF80
1C0780
300380
200180
600180
400180
800180
BFC180
FFE080
FFF880
000C80
000280
000180
0FFE80
0FFE00
1FFC00
070000
0C0000
080C00
103F00
087F80
0FC7C0
0FC1C0
03C1C0
00E180
006100
002300
002200
000400
000C00
000800
001000
002000
004000
008000
ENDCHAR
STARTCHAR char89
ENCODING 8761
SWIDTH 9500 0
DWIDTH 19 0
BBX 17 19 1 3
BITMAP
7FE380
7FE380
7F0380
070180
030180
010180
010180
1F0080
3FC080
7FE080
61F080
C07880
80B880
409C80
408C80
210680
1E0280
000180
000080
ENDCHAR
STARTCHAR char90
ENCODING 8762
SWIDTH 9500 0
DWIDTH 19 0
BBX 17 24 1 3
BITMAP
000080
000780
000F00
000800
000800
3FF800
3FF800
0F8000
030000
010000
010000
010000
03E000
04F800
083E00
301F00
E00F00
300700
380300
180300
1C0200
0E0400
0F8800
07F000
ENDCHAR
STARTCHAR char91
ENCODING 8763
SWIDTH 10500 0
DWIDTH 21 0
BBX 19 24 1 3
BITMAP
000120
0001E0
0003C0
000000
000200
3FFE00
3FFE00
07C000
018000
000000
008000
07F000
1FFE00
3FFF00
7FFF80
608180
C08080
808080
808080
808080
808080
408100
21E300
1E1C00
ENDCHAR
STARTCHAR char92
ENCODING 8764
SWIDTH 11000 0
DWIDTH 22 0
BBX 20 26 1 1
BITMAP
000010
0000F0
0001E0
000100
000100
3FFF00
7FFF00
3E0000
3C0000
300000
300000
600000
47FC00
5FFC00
7FFC00
400000
400000
400000
81C000
8FF000
BFF800
7FFC00
000600
000300
000100
000080
ENDCHAR
STARTCHAR char93
ENCODING 8765
SWIDTH 11000 0
DWIDTH 22 0
BBX 20 41 1 -14
BITMAP
0000B0
0000F0
0001E0
000100
000100
3FFF00
7FFF00
3E0000
380000
27FC00
6FFC00
7FF800
400000
400000
83E000
9FF800
FFFC00
3FFE00
000300
1FFC80
3FF800
3FF800
0C0000
100000
201800
407E00
60FF00
7F0F00
1F0700
078300
038300
01C600
00C400
004C00
000800
001000
002000
002000
004000
008000
010000
ENDCHAR
STARTCHAR char94
ENCODING 8766
SWIDTH 9500 0
DWIDTH 19 0
BBX 17 22 1 0
BITMAP
3E0F80
7E1F00
461F00
831800
811800
810800
810400
C20400
8FFF80
0FFF80
1FFF80
0E0180
0C0180
080180
0B8080
1FE080
1FF080
007880
001C80
000680
000180
000080
ENDCHAR
STARTCHAR char95
ENCODING 8767
SWIDTH 9500 0
DWIDTH 19 0
BBX 17 30 1 -8
BITMAP
01FF80
03FF00
041F00
080700
100300
206100
21FA00
23FE00
633E00
660E00
E40E00
E40F00
E21700
71E300
700300
780300
380100
0C0100
000100
000100
000080
000080
000080
000080
000080
000080
000080
000080
000080
000080
ENDCHAR
STARTCHAR char96
ENCODING 8768
SWIDTH 9000 0
DWIDTH 18 0
BBX 16 20 1 2
BITMAP
7FFF
FFFF
000F
000F
0007
0007
3FC7
3FF7
7FF3
001B
0007
0003
0001
1F81
3FE1
7FF1
E039
0009
0005
0003
ENDCHAR
STARTCHAR char97
ENCODING 8769
SWIDTH 10000 0
DWIDTH 20 0
BBX 18 26 1 -4
BITMAP
07FE00
0FFC00
083C00
101C00
200E00
400E00
400600
400600
C00200
C00200
C00200
C00400
600400
700800
30FC00
31FC00
13C600
000300
000100
000080
000080
000040
000040
000040
000040
000040
ENDCHAR
STARTCHAR char98
ENCODING 8770
SWIDTH 9000 0
DWIDTH 18 0
BBX 16 19 1 3
BITMAP
6383
E387
E387
6103
4103
4101
4101
8101
8081
80C1
E3F1
FFF9
7F19
1C0D
0005
0003
0003
0001
0001
ENDCHAR
STARTCHAR char99
ENCODING 8771
SWIDTH 10000 0
DWIDTH 20 0
BBX 18 19 1 3
BITMAP
3FFC00
3FFC00
078000
03C000
00C000
00C000
004000
004000
008000
0FC000
3FE000
7FF800
E03C00
800E00
000600
000300
000180
000080
000040
ENDCHAR
STARTCHAR char100
ENCODING 8772
SWIDTH 9500 0
DWIDTH 19 0
BBX 17 19 1 3
BITMAP
0FC380
1FC380
31C380
40C180
C04180
804180
804080
C04080
C04080
E04080
708080
71C080
33F080
03F880
000480
000280
000180
000080
000080
ENDCHAR
STARTCHAR char101
ENCODING 8773
SWIDTH 10000 0
DWIDTH 20 0
BBX 18 30 2 -8
BITMAP
007FC0
00FFC0
0181C0
0100C0
0200C0
020040
020040
010040
0180C0
0141C0
013FC0
390040
7F0040
FF0040
030040
008040
004040
004040
000040
000040
000040
000040
000040
000040
000040
000040
000040
000040
000040
000040
ENDCHAR
STARTCHAR char102
ENCODING 8774
SWIDTH 10000 0
DWIDTH 20 0
BBX 18 29 1 -7
BITMAP
FFC000
FFE000
C02000
C01000
C01000
C01000
C01000
C01000
C03000
E0D000
9F1000
801380
800FC0
801FC0
803800
802000
804000
804000
800000
800000
800000
800000
800000
800000
800000
800000
800000
800000
800000
ENDCHAR
STARTCHAR char103
ENCODING 8775
SWIDTH 9500 0
DWIDTH 19 0
BBX 17 19 1 3
BITMAP
3FE380
7FC380
1F8780
1B8180
31E180
206180
403180
401980
401880
7C0C80
FF0480
FF8680
038280
01C280
006180
002080
000080
000080
000080
ENDCHAR
STARTCHAR char104
ENCODING 8776
SWIDTH 8500 0
DWIDTH 17 0
BBX 15 27 1 -5
BITMAP
7FF0
FFF0
1E00
3000
4000
4070
C1FC
83FE
FA1E
FE0E
1E06
0F06
0706
0306
018C
008C
0008
0018
0010
0010
0020
0020
0040
0040
0080
0080
0100
ENDCHAR
STARTCHAR char105
ENCODING 8777
SWIDTH 10500 0
DWIDTH 21 0
BBX 19 19 1 3
BITMAP
E3F9E0
E3F9E0
C1E1E0
43F0E0
427060
447060
473860
479860
41CC60
40CC60
404460
404260
61C220
3F8120
3F0120
0E00A0
000060
000020
000020
ENDCHAR
STARTCHAR char106
ENCODING 8778
SWIDTH 10500 0
DWIDTH 21 0
BBX 19 32 1 -10
BITMAP
3FFF80
7FFF80
01C380
02C380
02C380
046180
3C6180
782180
F01180
801180
001180
000080
000080
000080
7FC080
7FE080
601080
601000
601000
601000
401800
786800
478800
4007C0
400FE0
401F00
403000
400000
400000
400000
400000
400000
ENDCHAR
STARTCHAR char99
ENCODING 8779
SWIDTH 10000 0
DWIDTH 20 0
BBX 18 19 1 3
BITMAP
3FFC00
3FFC00
078000
03C000
00C000
00C000
004000
004000
008000
0FC000
3FE000
7FF800
E03C00
800E00
000600
000300
000180
000080
000040
ENDCHAR
STARTCHAR char8780
ENCODING 8780
SWIDTH 12000 0
DWIDTH 24 0
BBX 20 18 2 0
BITMAP
FFFFF0
FFFFF0
FFFFF0
FFFFF0
FFFFF0
FFFFF0
FFFFF0
FFFFF0
FFFFF0
FFFFF0
FFFFF0
FFFFF0
FFFFF0
FFFFF0
FFFFF0
FFFFF0
FFFFF0
FFFFF0
ENDCHAR
STARTCHAR char8781
ENCODING 8781
SWIDTH 12000 0
DWIDTH 24 0
BBX 20 18 2 0
BITMAP
FFFFF0
FFFFF0
FFFFF0
FFFFF0
FFFFF0
FFFFF0
FFFFF0
FFFFF0
FFFFF0
FFFFF0
FFFFF0
FFFFF0
FFFFF0
FFFFF0
FFFFF0
FFFFF0
FFFFF0
FFFFF0
ENDCHAR
STARTCHAR char8782
ENCODING 8782
SWIDTH 12000 0
DWIDTH 24 0
BBX 20 18 2 0
BITMAP
FFFFF0
FFFFF0
FFFFF0
FFFFF0
FFFFF0
FFFFF0
FFFFF0
FFFFF0
FFFFF0
FFFFF0
FFFFF0
FFFFF0
FFFFF0
FFFFF0
FFFFF0
FFFFF0
FFFFF0
FFFFF0
ENDCHAR
STARTCHAR char8783
ENCODING 8783
SWIDTH 12000 0
DWIDTH 24 0
BBX 20 18 2 0
BITMAP
FFFFF0
FFFFF0
FFFFF0
FFFFF0
FFFFF0
FFFFF0
FFFFF0
FFFFF0
FFFFF0
FFFFF0
FFFFF0
FFFFF0
FFFFF0
FFFFF0
FFFFF0
FFFFF0
FFFFF0
FFFFF0
ENDCHAR
STARTCHAR char8784
ENCODING 8784
SWIDTH 12000 0
DWIDTH 24 0
BBX 20 18 2 0
BITMAP
FFFFF0
FFFFF0
FFFFF0
FFFFF0
FFFFF0
FFFFF0
FFFFF0
FFFFF0
FFFFF0
FFFFF0
FFFFF0
FFFFF0
FFFFF0
FFFFF0
FFFFF0
FFFFF0
FFFFF0
FFFFF0
ENDCHAR
STARTCHAR char8784
ENCODING 8785
SWIDTH 10500 0
DWIDTH 21 0
BBX 17 15 1 0
BITMAP
DB6D80
800080
000000
800080
000000
800080
800080
000000
800080
800080
000000
800080
800080
000000
ADB580
ENDCHAR
STARTCHAR char33
ENCODING 8786
SWIDTH 10000 0
DWIDTH 20 0
BBX 11 11 9 -11
BITMAP
1F80
3F80
4380
8180
8080
8080
C080
4100
4780
0FC0
0060
ENDCHAR
STARTCHAR char107
ENCODING 8787
SWIDTH 9000 0
DWIDTH 18 0
BBX 15 11 1 9
BITMAP
1800
3E00
7F00
8380
81C0
8060
C030
F818
700C
0004
0002
ENDCHAR
STARTCHAR char107
ENCODING 8788
SWIDTH 7000 0
DWIDTH 14 0
BBX 14 31 0 -11
BITMAP
1800
3E00
7F00
8380
81C0
8060
C030
F818
7008
0000
0000
0000
0000
0000
0000
0000
0000
0000
0000
0000
03F0
07F0
0870
1030
1010
1010
1810
0820
08F0
01F8
000C
ENDCHAR
STARTCHAR char108
ENCODING 8789
SWIDTH 10000 0
DWIDTH 20 0
BBX 17 11 2 -11
BITMAP
C00000
200000
100400
081F00
041F00
021180
030080
01E080
00F880
007F00
001C00
ENDCHAR
STARTCHAR char108
ENCODING 8790
SWIDTH 10000 0
DWIDTH 20 0
BBX 17 19 3 -14
BITMAP
01F800
03F800
043800
081800
080800
080800
0C0800
041000
C47800
20FC00
100600
081F00
041F00
021180
030080
01E080
00F880
007F00
001C00
ENDCHAR
STARTCHAR char111
ENCODING 8791
SWIDTH 12500 0
DWIDTH 25 0
BBX 15 27 0 -6
BITMAP
0060
00F0
03F8
0708
0E04
1C04
300C
607C
4038
8000
0000
0000
0000
0000
0000
0000
0000
0000
0000
0000
0000
0002
7F82
FFE2
E1FA
000E
0002
ENDCHAR
STARTCHAR char111
ENCODING 8792
SWIDTH 12500 0
DWIDTH 25 0
BBX 15 34 0 -13
BITMAP
0060
00F0
03F8
0708
0E04
1C04
300C
607C
4038
8000
0000
0000
0000
0000
0000
0000
0002
7F82
FFE2
E1FA
000E
0002
0000
07E0
0FE0
10E0
2060
2020
2020
3020
1040
11E0
03F0
0018
ENDCHAR
STARTCHAR char111
ENCODING 8793
SWIDTH 13500 0
DWIDTH 27 0
BBX 17 33 0 -12
BITMAP
006000
00F000
03F800
070800
0E0400
1C0400
300C00
607C00
403800
800000
000000
000000
000000
000000
000000
000000
000000
000000
07C380
0FC380
10C380
20C180
404180
C04180
C04180
C04080
C04080
608080
71C080
31F080
03FC80
000280
000180
ENDCHAR
STARTCHAR char111
ENCODING 8794
SWIDTH 13500 0
DWIDTH 27 0
BBX 17 35 0 -14
BITMAP
006000
00F000
03F800
070800
0E0400
1C0400
300C00
607C00
403800
800000
07C380
0FC380
10C380
20C180
404180
C04180
C04180
C04080
C04080
608080
71C080
31F080
03FC80
000280
01F980
03F800
043800
081800
080800
080800
0C0800
041000
047800
00FC00
000600
ENDCHAR
STARTCHAR char109
ENCODING 8795
SWIDTH 9500 0
DWIDTH 19 0
BBX 17 10 0 10
BITMAP
FC0000
7F0000
3F8000
1FE000
007000
001800
000C00
000200
000100
000080
ENDCHAR
STARTCHAR char112
ENCODING 8796
SWIDTH 9500 0
DWIDTH 19 0
BBX 17 11 0 9
BITMAP
FC0000
7E0000
3F8000
01C000
006000
7F3000
3FC800
3FF400
001E00
000300
000080
ENDCHAR
STARTCHAR char110
ENCODING 8797
SWIDTH 9500 0
DWIDTH 19 0
BBX 22 10 -2 10
BITMAP
00000C
0000F8
0007F0
000FC0
001E00
FC3000
7F6000
0F8000
00C000
004000
ENDCHAR
STARTCHAR char113
ENCODING 8798
SWIDTH 9500 0
DWIDTH 19 0
BBX 23 12 -2 11
BITMAP
00001C
0000F0
0007E0
E00FC0
7F1C0E
1FB0FC
03E3F8
F027E0
3F8E00
1FD000
01F000
001000
ENDCHAR
STARTCHAR char115
ENCODING 8799
SWIDTH 9500 0
DWIDTH 19 0
BBX 7 7 6 11
BITMAP
38
7C
C6
82
C6
7C
38
ENDCHAR
STARTCHAR char114
ENCODING 8800
SWIDTH 4000 0
DWIDTH 8 0
BBX 6 17 1 5
BITMAP
78
CC
84
84
CC
78
00
00
00
00
00
78
CC
84
84
CC
78
ENDCHAR
STARTCHAR char111
ENCODING 8801
SWIDTH 9000 0
DWIDTH 18 0
BBX 15 11 2 10
BITMAP
0030
0078
01FC
0384
0702
0E02
1806
303E
201C
4000
8000
ENDCHAR
STARTCHAR char107
ENCODING 8802
SWIDTH 7000 0
DWIDTH 14 0
BBX 14 31 0 -11
BITMAP
00C0
03E0
07F0
0E08
1C08
3008
6018
C0F8
8070
0000
0000
0000
0000
0000
0000
0000
0000
0000
0000
0000
03F0
07F0
0870
1030
1010
1010
1810
0820
08F0
01F8
000C
ENDCHAR
STARTCHAR char116
ENCODING 8803
SWIDTH 9500 0
DWIDTH 19 0
BBX 11 14 4 11
BITMAP
0400
0400
0400
0400
0600
0300
0980
1180
1F00
8E60
C0C0
6180
3F00
1E00
ENDCHAR
STARTCHAR char115
ENCODING 8804
SWIDTH 9500 0
DWIDTH 19 0
BBX 12 10 3 11
BITMAP
0E00
1F00
3180
2080
3180
1F10
CE60
60C0
3F80
0E00
ENDCHAR
STARTCHAR char119
ENCODING 8805
SWIDTH 9500 0
DWIDTH 19 0
BBX 13 9 10 -8
BITMAP
F000
7800
3E00
0700
0080
0040
0020
0010
0008
ENDCHAR
STARTCHAR char118
ENCODING 8806
SWIDTH 10000 0
DWIDTH 20 0
BBX 18 30 1 -8
BITMAP
0FF000
1FF000
31F000
403800
801800
801000
801000
407E00
78FF00
391F80
120780
0203C0
0701C0
0700C0
07C0C0
03F0C0
01E080
000080
000080
000180
000100
000100
000300
000200
000200
000200
000300
000100
0001C0
0000C0
ENDCHAR
STARTCHAR char120
ENCODING 8807
SWIDTH 9500 0
DWIDTH 19 0
BBX 4 10 7 20
BITMAP
20
20
20
20
40
80
90
90
F0
60
ENDCHAR
STARTCHAR char121
ENCODING 8808
SWIDTH 9500 0
DWIDTH 19 0
BBX 1 9 9 20
BITMAP
80
80
80
80
80
80
80
80
80
ENDCHAR
STARTCHAR char122
ENCODING 8809
SWIDTH 9500 0
DWIDTH 19 0
BBX 14 12 2 9
BITMAP
FFFC
FFFC
3030
1860
0480
0300
0780
0840
3030
6008
FFFC
FFFC
ENDCHAR
STARTCHAR char123
ENCODING 8810
SWIDTH 9500 0
DWIDTH 19 0
BBX 16 11 2 10
BITMAP
1E78
3F7C
61C6
4183
C181
8181
8181
C183
4182
6186
0180
ENDCHAR
STARTCHAR char124
ENCODING 8811
SWIDTH 9500 0
DWIDTH 19 0
BBX 14 11 3 9
BITMAP
F87C
8844
8844
8844
8844
8844
8844
8844
8844
8844
8FC4
ENDCHAR
STARTCHAR char125
ENCODING 8812
SWIDTH 9500 0
DWIDTH 19 0
BBX 16 12 2 9
BITMAP
060C
3F1A
6311
4111
8111
8110
8210
8610
8FD0
C030
4010
0010
ENDCHAR
STARTCHAR char8784
ENCODING 8813
SWIDTH 12000 0
DWIDTH 24 0
BBX 20 18 2 0
BITMAP
FFFFF0
FFFFF0
FFFFF0
FFFFF0
FFFFF0
FFFFF0
FFFFF0
FFFFF0
FFFFF0
FFFFF0
FFFFF0
FFFFF0
FFFFF0
FFFFF0
FFFFF0
FFFFF0
FFFFF0
FFFFF0
ENDCHAR
STARTCHAR char8784
ENCODING 8814
SWIDTH 12000 0
DWIDTH 24 0
BBX 20 18 2 0
BITMAP
FFFFF0
FFFFF0
FFFFF0
FFFFF0
FFFFF0
FFFFF0
FFFFF0
FFFFF0
FFFFF0
FFFFF0
FFFFF0
FFFFF0
FFFFF0
FFFFF0
FFFFF0
FFFFF0
FFFFF0
FFFFF0
ENDCHAR
STARTCHAR char8784
ENCODING 8815
SWIDTH 12000 0
DWIDTH 24 0
BBX 20 18 2 0
BITMAP
FFFFF0
FFFFF0
FFFFF0
FFFFF0
FFFFF0
FFFFF0
FFFFF0
FFFFF0
FFFFF0
FFFFF0
FFFFF0
FFFFF0
FFFFF0
FFFFF0
FFFFF0
FFFFF0
FFFFF0
FFFFF0
ENDCHAR
STARTCHAR char8779
ENCODING 8816
SWIDTH 12000 0
DWIDTH 24 0
BBX 20 18 2 0
BITMAP
FFFFF0
FFFFF0
FFFFF0
FFFFF0
FFFFF0
FFFFF0
FFFFF0
FFFFF0
FFFFF0
FFFFF0
FFFFF0
FFFFF0
FFFFF0
FFFFF0
FFFFF0
FFFFF0
FFFFF0
FFFFF0
ENDCHAR
STARTCHAR char8780
ENCODING 8817
SWIDTH 12000 0
DWIDTH 24 0
BBX 20 18 2 0
BITMAP
FFFFF0
FFFFF0
FFFFF0
FFFFF0
FFFFF0
FFFFF0
FFFFF0
FFFFF0
FFFFF0
FFFFF0
FFFFF0
FFFFF0
FFFFF0
FFFFF0
FFFFF0
FFFFF0
FFFFF0
FFFFF0
ENDCHAR
STARTCHAR char8781
ENCODING 8818
SWIDTH 12000 0
DWIDTH 24 0
BBX 20 18 2 0
BITMAP
FFFFF0
FFFFF0
FFFFF0
FFFFF0
FFFFF0
FFFFF0
FFFFF0
FFFFF0
FFFFF0
FFFFF0
FFFFF0
FFFFF0
FFFFF0
FFFFF0
FFFFF0
FFFFF0
FFFFF0
FFFFF0
ENDCHAR
STARTCHAR char8782
ENCODING 8819
SWIDTH 12000 0
DWIDTH 24 0
BBX 20 18 2 0
BITMAP
FFFFF0
FFFFF0
FFFFF0
FFFFF0
FFFFF0
FFFFF0
FFFFF0
FFFFF0
FFFFF0
FFFFF0
FFFFF0
FFFFF0
FFFFF0
FFFFF0
FFFFF0
FFFFF0
FFFFF0
FFFFF0
ENDCHAR
STARTCHAR char8783
ENCODING 8820
SWIDTH 12000 0
DWIDTH 24 0
BBX 20 18 2 0
BITMAP
FFFFF0
FFFFF0
FFFFF0
FFFFF0
FFFFF0
FFFFF0
FFFFF0
FFFFF0
FFFFF0
FFFFF0
FFFFF0
FFFFF0
FFFFF0
FFFFF0
FFFFF0
FFFFF0
FFFFF0
FFFFF0
ENDCHAR
STARTCHAR char8779
ENCODING 8821
SWIDTH 12000 0
DWIDTH 24 0
BBX 20 18 2 0
BITMAP
FFFFF0
FFFFF0
FFFFF0
FFFFF0
FFFFF0
FFFFF0
FFFFF0
FFFFF0
FFFFF0
FFFFF0
FFFFF0
FFFFF0
FFFFF0
FFFFF0
FFFFF0
FFFFF0
FFFFF0
FFFFF0
ENDCHAR
STARTCHAR char8780
ENCODING 8822
SWIDTH 12000 0
DWIDTH 24 0
BBX 20 18 2 0
BITMAP
FFFFF0
FFFFF0
FFFFF0
FFFFF0
FFFFF0
FFFFF0
FFFFF0
FFFFF0
FFFFF0
FFFFF0
FFFFF0
FFFFF0
FFFFF0
FFFFF0
FFFFF0
FFFFF0
FFFFF0
FFFFF0
ENDCHAR
STARTCHAR char8781
ENCODING 8823
SWIDTH 12000 0
DWIDTH 24 0
BBX 20 18 2 0
BITMAP
FFFFF0
FFFFF0
FFFFF0
FFFFF0
FFFFF0
FFFFF0
FFFFF0
FFFFF0
FFFFF0
FFFFF0
FFFFF0
FFFFF0
FFFFF0
FFFFF0
FFFFF0
FFFFF0
FFFFF0
FFFFF0
ENDCHAR
STARTCHAR char8782
ENCODING 8824
SWIDTH 12000 0
DWIDTH 24 0
BBX 20 18 2 0
BITMAP
FFFFF0
FFFFF0
FFFFF0
FFFFF0
FFFFF0
FFFFF0
FFFFF0
FFFFF0
FFFFF0
FFFFF0
FFFFF0
FFFFF0
FFFFF0
FFFFF0
FFFFF0
FFFFF0
FFFFF0
FFFFF0
ENDCHAR
STARTCHAR char8783
ENCODING 8825
SWIDTH 12000 0
DWIDTH 24 0
BBX 20 18 2 0
BITMAP
FFFFF0
FFFFF0
FFFFF0
FFFFF0
FFFFF0
FFFFF0
FFFFF0
FFFFF0
FFFFF0
FFFFF0
FFFFF0
FFFFF0
FFFFF0
FFFFF0
FFFFF0
FFFFF0
FFFFF0
FFFFF0
ENDCHAR
STARTCHAR char8779
ENCODING 8826
SWIDTH 12000 0
DWIDTH 24 0
BBX 20 18 2 0
BITMAP
FFFFF0
FFFFF0
FFFFF0
FFFFF0
FFFFF0
FFFFF0
FFFFF0
FFFFF0
FFFFF0
FFFFF0
FFFFF0
FFFFF0
FFFFF0
FFFFF0
FFFFF0
FFFFF0
FFFFF0
FFFFF0
ENDCHAR
STARTCHAR char8780
ENCODING 8827
SWIDTH 12000 0
DWIDTH 24 0
BBX 20 18 2 0
BITMAP
FFFFF0
FFFFF0
FFFFF0
FFFFF0
FFFFF0
FFFFF0
FFFFF0
FFFFF0
FFFFF0
FFFFF0
FFFFF0
FFFFF0
FFFFF0
FFFFF0
FFFFF0
FFFFF0
FFFFF0
FFFFF0
ENDCHAR
STARTCHAR char8781
ENCODING 8828
SWIDTH 12000 0
DWIDTH 24 0
BBX 20 18 2 0
BITMAP
FFFFF0
FFFFF0
FFFFF0
FFFFF0
FFFFF0
FFFFF0
FFFFF0
FFFFF0
FFFFF0
FFFFF0
FFFFF0
FFFFF0
FFFFF0
FFFFF0
FFFFF0
FFFFF0
FFFFF0
FFFFF0
ENDCHAR
STARTCHAR char8782
ENCODING 8829
SWIDTH 12000 0
DWIDTH 24 0
BBX 20 18 2 0
BITMAP
FFFFF0
FFFFF0
FFFFF0
FFFFF0
FFFFF0
FFFFF0
FFFFF0
FFFFF0
FFFFF0
FFFFF0
FFFFF0
FFFFF0
FFFFF0
FFFFF0
FFFFF0
FFFFF0
FFFFF0
FFFFF0
ENDCHAR
STARTCHAR char8783
ENCODING 8830
SWIDTH 12000 0
DWIDTH 24 0
BBX 20 18 2 0
BITMAP
FFFFF0
FFFFF0
FFFFF0
FFFFF0
FFFFF0
FFFFF0
FFFFF0
FFFFF0
FFFFF0
FFFFF0
FFFFF0
FFFFF0
FFFFF0
FFFFF0
FFFFF0
FFFFF0
FFFFF0
FFFFF0
ENDCHAR
STARTCHAR char1
ENCODING 8993
SWIDTH 9500 0
DWIDTH 19 0
BBX 17 15 1 7
BITMAP
3FFF80
7FFF80
01C180
02C180
00C180
044180
1C6180
782180
F02080
801080
001080
000880
000880
000080
000080
ENDCHAR
STARTCHAR char2
ENCODING 8994
SWIDTH 9500 0
DWIDTH 19 0
BBX 17 16 1 6
BITMAP
1FFF80
3FFF80
60FF80
40C380
C08380
C18180
C10180
C10080
C20080
C26080
C1F880
C03E80
800780
800080
800000
800000
ENDCHAR
STARTCHAR char3
ENCODING 8995
SWIDTH 9000 0
DWIDTH 18 0
BBX 16 15 1 7
BITMAP
7FFF
FFFF
1CC3
3063
2063
4033
8031
8031
BE11
FF91
81D1
0051
0031
0001
0001
ENDCHAR
STARTCHAR char4
ENCODING 8996
SWIDTH 9000 0
DWIDTH 18 0
BBX 16 30 1 -8
BITMAP
7FFF
FFFF
1CC3
3063
4023
4031
8031
FF11
FF91
00D1
0031
0001
3FF8
3FF8
7FF8
1800
1000
2018
40FE
21FF
3D07
1E03
0703
0382
0184
0088
0030
0040
0080
0200
ENDCHAR
STARTCHAR char5
ENCODING 8997
SWIDTH 9000 0
DWIDTH 18 0
BBX 16 14 1 8
BITMAP
3FFE
7FFE
1C00
1800
1000
3000
2000
2000
4F80
7FF0
7FF8
801C
0006
0001
ENDCHAR
STARTCHAR char6
ENCODING 8998
SWIDTH 9000 0
DWIDTH 18 0
BBX 16 15 1 7
BITMAP
3FF8
3FF8
0700
0300
0100
0100
03E0
0478
181E
E007
3003
1803
1C02
0F04
07F8
ENDCHAR
STARTCHAR char7
ENCODING 8999
SWIDTH 9500 0
DWIDTH 19 0
BBX 17 16 1 6
BITMAP
3FFE00
3FFE00
038000
010000
008000
008000
1FFC00
3FFF00
788780
408080
808080
808080
808080
408100
208200
1FFC00
ENDCHAR
STARTCHAR char8
ENCODING 9000
SWIDTH 9000 0
DWIDTH 18 0
BBX 16 15 1 7
BITMAP
3FFF
7FFF
3800
3000
2000
6000
4FFC
5FFC
6000
4000
4000
87E0
9FF8
FFFE
0003
ENDCHAR
STARTCHAR char9001
ENCODING 9001
SWIDTH 12000 0
DWIDTH 24 0
BBX 20 18 2 0
BITMAP
FFFFF0
FFFFF0
FFFFF0
FFFFF0
FFFFF0
FFFFF0
FFFFF0
FFFFF0
FFFFF0
FFFFF0
FFFFF0
FFFFF0
FFFFF0
FFFFF0
FFFFF0
FFFFF0
FFFFF0
FFFFF0
ENDCHAR
STARTCHAR char10
ENCODING 9002
SWIDTH 8500 0
DWIDTH 17 0
BBX 15 20 1 2
BITMAP
1FC0
3FE0
41E0
8060
8020
8020
8020
E1F8
77FC
2C3C
080E
0C06
0C06
0F06
07C6
0384
0008
0010
0020
00C0
ENDCHAR
STARTCHAR char11
ENCODING 9003
SWIDTH 8500 0
DWIDTH 17 0
BBX 15 16 1 6
BITMAP
7FFC
7FFE
000C
000E
000E
000C
1F8C
3FC8
7838
E010
E010
E000
6000
2000
1800
0400
ENDCHAR
STARTCHAR char12
ENCODING 9004
SWIDTH 8500 0
DWIDTH 17 0
BBX 15 17 1 5
BITMAP
FF80
FFE0
C010
C008
C004
F80C
C7F8
C1F0
C010
8008
8004
81F4
87FE
8FC0
9800
A000
C000
ENDCHAR
STARTCHAR char13
ENCODING 9005
SWIDTH 9000 0
DWIDTH 18 0
BBX 16 17 1 5
BITMAP
3FFE
1FFF
0078
0018
0004
0002
0002
03F9
07FF
0FF0
1C00
1800
3000
2000
6000
4000
8000
ENDCHAR
STARTCHAR char14
ENCODING 9006
SWIDTH 9000 0
DWIDTH 18 0
BBX 16 28 1 -6
BITMAP
7FF8
7FF8
01E0
0030
0010
07C8
1FF8
3FF8
3C00
6000
7FF8
FFF8
7FF0
1800
2000
4000
40FC
81FE
B30F
7C07
0E03
0706
030C
0198
00A0
0040
0180
0200
ENDCHAR
STARTCHAR char15
ENCODING 9007
SWIDTH 8500 0
DWIDTH 17 0
BBX 15 21 1 1
BITMAP
1FFC
1FFC
01E0
00C0
0080
0080
00F8
03FC
07C6
0F02
0D02
1902
1884
3078
2000
2000
4000
4000
4000
8000
8000
ENDCHAR
STARTCHAR char16
ENCODING 9008
SWIDTH 8500 0
DWIDTH 17 0
BBX 15 17 1 5
BITMAP
7FFC
7FFC
6000
E000
6000
6000
21F0
37FC
183E
100E
0806
0806
0006
000C
0030
0040
0180
ENDCHAR
STARTCHAR char17
ENCODING 9009
SWIDTH 8000 0
DWIDTH 16 0
BBX 14 17 1 5
BITMAP
07FC
0FFC
301C
400C
800C
C07C
7F8C
3E0C
200C
400C
4004
BE04
FF84
8FC4
0064
0014
000C
ENDCHAR
STARTCHAR char18
ENCODING 9010
SWIDTH 9000 0
DWIDTH 18 0
BBX 16 16 1 6
BITMAP
7FFC
7FF8
0F00
1800
3000
6000
4000
9FC0
FFF0
0FF0
0038
0018
000C
0004
0002
0001
ENDCHAR
STARTCHAR char19
ENCODING 9011
SWIDTH 9500 0
DWIDTH 19 0
BBX 17 30 1 -8
BITMAP
7FFE00
7FFC00
0F0000
1C0000
300000
200000
430000
5FF000
7FF800
00F800
001C00
000C00
7FFE00
7FF200
7FF100
180080
200000
403000
80FC00
81FE00
FA0700
3E0700
0E0600
070600
030800
019000
00A000
004000
010000
040000
ENDCHAR
STARTCHAR char20
ENCODING 9012
SWIDTH 8500 0
DWIDTH 17 0
BBX 15 20 1 2
BITMAP
3FF8
7FF0
0F00
0300
0200
0200
3F00
7F80
C7C0
80E0
80F0
8130
4318
3C18
0008
0004
0004
0002
0002
0002
ENDCHAR
STARTCHAR char21
ENCODING 9013
SWIDTH 9500 0
DWIDTH 19 0
BBX 17 14 1 8
BITMAP
7FE380
7FC780
180380
300180
200180
400180
400180
400180
9F0080
BFE080
7FF880
000C80
000380
000080
ENDCHAR
STARTCHAR char22
ENCODING 9014
SWIDTH 9500 0
DWIDTH 19 0
BBX 17 14 1 8
BITMAP
7FE380
7FC780
180380
300780
201980
402180
404180
408180
9F0080
BFE080
7FF880
000C80
000280
000180
ENDCHAR
STARTCHAR char23
ENCODING 9015
SWIDTH 9500 0
DWIDTH 19 0
BBX 17 14 1 8
BITMAP
7FFF80
7FFF80
180380
300180
200180
400180
400180
800180
9F0080
BFE080
7FF880
000C80
000380
000180
ENDCHAR
STARTCHAR char24
ENCODING 9016
SWIDTH 9500 0
DWIDTH 19 0
BBX 17 29 1 -7
BITMAP
7FFF80
7FFF80
180380
300180
200180
400180
400080
9F8080
FFF080
7FF880
000680
000180
1FFC00
3FFC00
3FF800
0C0000
100000
101C00
207F00
20FF80
7D0380
1F0180
078180
018300
00C600
004C00
001000
002000
004000
ENDCHAR
STARTCHAR char25
ENCODING 9017
SWIDTH 9500 0
DWIDTH 19 0
BBX 17 14 1 8
BITMAP
7FE380
7FE780
3F0380
060180
020180
010180
3F8180
7FC180
41F080
80B880
808C80
410680
3E0180
000080
ENDCHAR
STARTCHAR char26
ENCODING 9018
SWIDTH 9500 0
DWIDTH 19 0
BBX 17 19 1 7
BITMAP
000780
000F00
000800
000800
3FF800
3FF800
070000
030000
010000
010000
03E000
047800
181E00
E00700
300300
180300
1C0200
0F0400
07F800
ENDCHAR
STARTCHAR char27
ENCODING 9019
SWIDTH 10500 0
DWIDTH 21 0
BBX 19 20 1 6
BITMAP
0001E0
0003C0
000200
000200
3FFE00
3FFE00
038000
010000
008000
008000
1FFC00
3FFF00
788780
408080
808080
808080
808080
408080
21C300
1E3C00
ENDCHAR
STARTCHAR char28
ENCODING 9020
SWIDTH 11000 0
DWIDTH 22 0
BBX 20 19 1 7
BITMAP
0000F0
0001E0
000100
000100
3FFF00
7FFF00
380000
300000
200000
600000
4FFC00
5FFC00
600000
800000
800000
87E000
9FF800
7FFE00
000300
ENDCHAR
STARTCHAR char29
ENCODING 9021
SWIDTH 11000 0
DWIDTH 22 0
BBX 20 34 1 -8
BITMAP
0000F0
0001E0
000100
000100
3FFF00
7FFF00
3C0000
300000
600000
4FFC00
7FFC00
400000
400000
87F000
BFFC00
FFFE00
000180
1FFC00
3FFC00
070000
0C0000
100000
101C00
207F00
20FF80
7F0380
0F0180
038180
018300
00C600
004800
001000
002000
008000
ENDCHAR
STARTCHAR char30
ENCODING 9022
SWIDTH 9500 0
DWIDTH 19 0
BBX 6 12 13 10
BITMAP
04
04
04
0C
14
24
44
C4
64
14
0C
04
ENDCHAR
STARTCHAR char31
ENCODING 9023
SWIDTH 9000 0
DWIDTH 18 0
BBX 16 18 1 4
BITMAP
03FF
07FE
080E
1002
10C2
23F2
47FC
441C
C40C
E41C
E3E6
7006
7802
1802
0001
0001
0001
0001
ENDCHAR
STARTCHAR char32
ENCODING 9024
SWIDTH 9000 0
DWIDTH 18 0
BBX 16 16 1 6
BITMAP
7FFF
FFFF
0007
0007
0003
3FC3
7FF3
0079
0005
0003
0001
1FC1
7FF1
E039
0007
0001
ENDCHAR
STARTCHAR char252
ENCODING 9025
SWIDTH 10000 0
DWIDTH 20 0
BBX 18 14 1 8
BITMAP
07FF00
07FE00
180E00
200600
400300
400300
800100
C00200
C00200
700400
707C00
31FF00
000380
000040
ENDCHAR
STARTCHAR char34
ENCODING 9026
SWIDTH 10000 0
DWIDTH 20 0
BBX 17 13 3 9
BITMAP
000100
000100
000100
000100
F00100
8E0200
41FC00
200080
180100
0C0300
079E00
03FC00
00F800
ENDCHAR
STARTCHAR char35
ENCODING 9027
SWIDTH 10000 0
DWIDTH 20 0
BBX 15 8 4 15
BITMAP
0002
0002
0002
7F82
FFE2
E1FA
000E
0002
ENDCHAR
STARTCHAR char36
ENCODING 9028
SWIDTH 9500 0
DWIDTH 19 0
BBX 17 15 1 7
BITMAP
07C380
0FC380
10C380
20C180
404180
C04180
C04180
C04080
C04080
608080
71C080
31F080
03FC80
000280
000180
ENDCHAR
STARTCHAR char37
ENCODING 9029
SWIDTH 9500 0
DWIDTH 19 0
BBX 17 16 1 6
BITMAP
00FF80
01FF80
030080
020080
020080
020080
030180
038680
047880
FC0080
FE0080
070080
010080
000080
000080
000080
ENDCHAR
STARTCHAR char38
ENCODING 9030
SWIDTH 9500 0
DWIDTH 19 0
BBX 18 16 1 6
BITMAP
FF8000
FFC000
C02000
C01000
C01000
C01000
C03000
B8D000
8F1000
801F80
801FC0
803000
804000
800000
800000
800000
ENDCHAR
STARTCHAR char39
ENCODING 9031
SWIDTH 8500 0
DWIDTH 17 0
BBX 15 13 1 9
BITMAP
7F8E
7F8E
3E0E
6706
4186
80C6
8062
F832
FC12
0E0A
0306
0082
0002
ENDCHAR
STARTCHAR char40
ENCODING 9032
SWIDTH 8500 0
DWIDTH 17 0
BBX 15 17 1 5
BITMAP
7FF0
7FF0
1C00
3000
4000
4070
C1FC
83FE
F80E
3C06
0E06
0704
030C
0108
0010
0020
0040
ENDCHAR
STARTCHAR char41
ENCODING 9033
SWIDTH 9500 0
DWIDTH 19 0
BBX 17 17 1 5
BITMAP
E3F380
C7F380
C3C380
43C180
44C180
48E180
4A6180
5F3080
41B080
409080
408880
408480
610480
3F0280
3E0180
000080
000080
ENDCHAR
STARTCHAR char42
ENCODING 9034
SWIDTH 11000 0
DWIDTH 22 0
BBX 20 26 1 -4
BITMAP
3FFF80
7FFF80
01C180
02C180
00C180
044180
1C6180
782180
F02080
801080
001080
000080
000880
3FE080
3FE080
301000
200800
200800
200800
301800
3C3800
23C800
200BE0
200FF0
200C00
001000
ENDCHAR
STARTCHAR char253
ENCODING 9035
SWIDTH 9500 0
DWIDTH 19 0
BBX 17 17 1 5
BITMAP
3C0F80
7E0F80
C21E00
820C00
820600
C20200
8FFF80
0FFF80
060180
080080
0F8080
1FE080
10F080
001C80
000680
000380
000080
ENDCHAR
STARTCHAR char254
ENCODING 9036
SWIDTH 9500 0
DWIDTH 19 0
BBX 17 15 1 7
BITMAP
71C180
71C380
718380
218180
208080
408080
808080
804080
C0F080
7FF880
3F0C80
000280
000180
000080
000080
ENDCHAR
STARTCHAR char255
ENCODING 9037
SWIDTH 10500 0
DWIDTH 21 0
BBX 19 15 1 7
BITMAP
1FFF00
1FFE00
038000
00C000
006000
002000
002000
006000
1FF000
3FF800
601E00
800700
000180
0000C0
000020
ENDCHAR
STARTCHAR char9039
ENCODING 9038
SWIDTH 12000 0
DWIDTH 24 0
BBX 20 18 2 0
BITMAP
FFFFF0
FFFFF0
FFFFF0
FFFFF0
FFFFF0
FFFFF0
FFFFF0
FFFFF0
FFFFF0
FFFFF0
FFFFF0
FFFFF0
FFFFF0
FFFFF0
FFFFF0
FFFFF0
FFFFF0
FFFFF0
ENDCHAR
STARTCHAR char8525
ENCODING 9039
SWIDTH 11000 0
DWIDTH 22 0
BBX 20 18 1 4
BITMAP
000070
F800F0
7C01E0
3C03C0
1E0780
0E0E00
071C00
03B800
01F000
00C000
01E000
033000
061800
0C0C00
180600
300300
600180
C000C0
ENDCHAR
STARTCHAR char8550
ENCODING 9040
SWIDTH 11500 0
DWIDTH 23 0
BBX 21 22 1 0
BITMAP
002000
007000
007038
7C7078
3E20F0
1E01E0
0F03C0
070700
038E00
41DC10
E0F838
E06038
E0F038
41D810
030C00
060600
0C0300
182180
3070C0
607060
007000
002000
ENDCHAR
STARTCHAR char9042
ENCODING 9041
SWIDTH 11500 0
DWIDTH 23 0
BBX 21 16 1 4
BITMAP
01FC00
07FF00
0F0780
3C01E0
700070
E00038
C00018
C00018
C00018
C00018
600030
700070
3C01E0
0F0780
07FF00
01FC00
ENDCHAR
STARTCHAR char9043
ENCODING 9042
SWIDTH 9500 0
DWIDTH 19 0
BBX 17 12 1 6
BITMAP
0FF000
300C00
600600
C00300
C00180
C00180
C00180
C00180
600300
300600
180C00
07F000
ENDCHAR
STARTCHAR char9044
ENCODING 9043
SWIDTH 16000 0
DWIDTH 32 0
BBX 20 22 1 0
BITMAP
006000
00FC00
00E380
0000C0
000060
01FC30
060630
0C0330
0801B0
1801E0
1801C0
380180
780180
D80100
CC0300
C60600
C3F800
600000
300000
1C7000
03F000
006000
ENDCHAR
STARTCHAR char9045
ENCODING 9044
SWIDTH 9500 0
DWIDTH 19 0
BBX 17 16 1 5
BITMAP
07E000
1C1C00
300600
67F300
CC1980
D80D80
D80D80
D98D80
D98D80
D98D80
D98D80
499B00
67F300
318600
198C00
07F000
ENDCHAR
STARTCHAR char9046
ENCODING 9045
SWIDTH 10500 0
DWIDTH 21 0
BBX 19 37 0 -15
BITMAP
00C000
00C000
18C600
07F800
06C800
0CCC00
0CCC00
0CCC00
0CCC00
06D800
03F000
00E000
01F000
01F000
01F000
00E000
07FC00
180300
27FC80
3C0780
300180
300180
300180
300180
200080
200080
6000C0
6000C0
6000C0
6000C0
6000C0
6000C0
6000C0
7001C0
CFFE60
380380
07FC00
ENDCHAR
STARTCHAR char9046
ENCODING 9046
SWIDTH 9500 0
DWIDTH 19 0
BBX 17 40 1 -19
BITMAP
018000
018000
318C00
0FF000
0D9000
199800
199800
199800
199800
0DB000
07E000
018000
03E000
0C1800
300C00
600600
7C6700
E36780
C18780
D9CD80
99F980
C36180
C60180
466300
626200
330600
199800
07F000
018000
07E000
0DB000
199800
199800
199800
199800
0D9000
0FF000
318C00
018000
018000
ENDCHAR
STARTCHAR char9048
ENCODING 9047
SWIDTH 16500 0
DWIDTH 33 0
BBX 31 13 1 -20
BITMAP
80000004
C003000C
CE0301CC
F9C78E7C
F078783C
767319BC
766319B8
3A631938
1B631B70
1FFFFFF0
12331908
26630CC4
4CC30662
ENDCHAR
STARTCHAR char9046
ENCODING 9048
SWIDTH 21500 0
DWIDTH 43 0
BBX 41 40 1 -19
BITMAP
000018000000
000018000000
000318C00000
0000FF000000
0000D9000000
000199800000
000199800000
000199800000
000199800000
0000DB000000
00007E000000
000018000000
00003E000000
0000C1800000
200300C00200
27860060F200
1FC7C671FC00
106E367B0C00
102C187A0400
FFFD9CDFFF80
FFF99F9FFF80
102C361A0400
186C601B0400
1FC46631FC00
27862620F200
200330600200
000199800000
00007F000000
000018000000
00007E000000
0000DB000000
000199800000
000199800000
000199800000
000199800000
0000D9000000
0000FF000000
000318C00000
000018000000
000018000000
ENDCHAR
STARTCHAR char9050
ENCODING 9049
SWIDTH 8500 0
DWIDTH 17 0
BBX 15 37 1 -16
BITMAP
0300
8304
6318
1FE0
1B20
3330
3330
3330
3330
1B60
0FC0
0780
0380
07C0
07C0
07C0
0380
FFFE
4C64
6C6C
644C
66CC
3298
3118
3118
1830
1830
1830
0C60
0C60
0460
06C0
06C0
0380
0380
0100
0100
ENDCHAR
STARTCHAR char9051
ENCODING 9050
SWIDTH 11000 0
DWIDTH 22 0
BBX 20 19 1 1
BITMAP
03FC00
06F600
0DFB00
10F080
330CC0
61F860
660660
41F820
C00030
C00030
C00030
C00030
C00030
C00030
400020
600060
3000C0
180180
0FFF00
ENDCHAR
STARTCHAR char9053
ENCODING 9051
SWIDTH 9500 0
DWIDTH 19 0
BBX 17 16 1 4
BITMAP
07E000
181800
300C00
600600
7C0700
E20180
C10180
CD9980
8CD980
C04180
C02380
401F00
600300
300600
1C0C00
07F800
ENDCHAR
STARTCHAR char9053
ENCODING 9052
SWIDTH 9500 0
DWIDTH 19 0
BBX 17 16 1 4
BITMAP
03E000
0C1800
300C00
600600
7C6700
E36780
C18780
D9CD80
99F980
C36180
C60180
466300
626200
330600
199800
07F000
ENDCHAR
STARTCHAR char9053
ENCODING 9053
SWIDTH 9500 0
DWIDTH 19 0
BBX 17 16 1 4
BITMAP
07F000
1E7C00
300E00
60CF00
7CC900
E21180
C16080
CDD880
CCD980
834180
843380
44DD00
64C300
320600
1F9C00
07F800
ENDCHAR
STARTCHAR char9039
ENCODING 9054
SWIDTH 12000 0
DWIDTH 24 0
BBX 20 18 2 0
BITMAP
FFFFF0
FFFFF0
FFFFF0
FFFFF0
FFFFF0
FFFFF0
FFFFF0
FFFFF0
FFFFF0
FFFFF0
FFFFF0
FFFFF0
FFFFF0
FFFFF0
FFFFF0
FFFFF0
FFFFF0
FFFFF0
ENDCHAR
STARTCHAR char9039
ENCODING 9055
SWIDTH 12000 0
DWIDTH 24 0
BBX 20 18 2 0
BITMAP
FFFFF0
FFFFF0
FFFFF0
FFFFF0
FFFFF0
FFFFF0
FFFFF0
FFFFF0
FFFFF0
FFFFF0
FFFFF0
FFFFF0
FFFFF0
FFFFF0
FFFFF0
FFFFF0
FFFFF0
FFFFF0
ENDCHAR
STARTCHAR char8526
ENCODING 9056
SWIDTH 12000 0
DWIDTH 24 0
BBX 22 22 1 -1
BITMAP
030300
018600
00CC00
007800
003000
003800
006C00
00C600
018300
030100
000000
000000
C0CC0C
618618
330330
1E01E0
0C00C0
0E00E0
1B01B0
318318
60C60C
C04C04
ENDCHAR
STARTCHAR char8779
ENCODING 9057
SWIDTH 12000 0
DWIDTH 24 0
BBX 20 18 2 0
BITMAP
FFFFF0
FFFFF0
FFFFF0
FFFFF0
FFFFF0
FFFFF0
FFFFF0
FFFFF0
FFFFF0
FFFFF0
FFFFF0
FFFFF0
FFFFF0
FFFFF0
FFFFF0
FFFFF0
FFFFF0
FFFFF0
ENDCHAR
STARTCHAR char8780
ENCODING 9058
SWIDTH 12000 0
DWIDTH 24 0
BBX 20 18 2 0
BITMAP
FFFFF0
FFFFF0
FFFFF0
FFFFF0
FFFFF0
FFFFF0
FFFFF0
FFFFF0
FFFFF0
FFFFF0
FFFFF0
FFFFF0
FFFFF0
FFFFF0
FFFFF0
FFFFF0
FFFFF0
FFFFF0
ENDCHAR
STARTCHAR char8781
ENCODING 9059
SWIDTH 12000 0
DWIDTH 24 0
BBX 20 18 2 0
BITMAP
FFFFF0
FFFFF0
FFFFF0
FFFFF0
FFFFF0
FFFFF0
FFFFF0
FFFFF0
FFFFF0
FFFFF0
FFFFF0
FFFFF0
FFFFF0
FFFFF0
FFFFF0
FFFFF0
FFFFF0
FFFFF0
ENDCHAR
STARTCHAR char8782
ENCODING 9060
SWIDTH 12000 0
DWIDTH 24 0
BBX 20 18 2 0
BITMAP
FFFFF0
FFFFF0
FFFFF0
FFFFF0
FFFFF0
FFFFF0
FFFFF0
FFFFF0
FFFFF0
FFFFF0
FFFFF0
FFFFF0
FFFFF0
FFFFF0
FFFFF0
FFFFF0
FFFFF0
FFFFF0
ENDCHAR
STARTCHAR char8783
ENCODING 9061
SWIDTH 12000 0
DWIDTH 24 0
BBX 20 18 2 0
BITMAP
FFFFF0
FFFFF0
FFFFF0
FFFFF0
FFFFF0
FFFFF0
FFFFF0
FFFFF0
FFFFF0
FFFFF0
FFFFF0
FFFFF0
FFFFF0
FFFFF0
FFFFF0
FFFFF0
FFFFF0
FFFFF0
ENDCHAR
STARTCHAR char8779
ENCODING 9062
SWIDTH 12000 0
DWIDTH 24 0
BBX 20 18 2 0
BITMAP
FFFFF0
FFFFF0
FFFFF0
FFFFF0
FFFFF0
FFFFF0
FFFFF0
FFFFF0
FFFFF0
FFFFF0
FFFFF0
FFFFF0
FFFFF0
FFFFF0
FFFFF0
FFFFF0
FFFFF0
FFFFF0
ENDCHAR
STARTCHAR char8780
ENCODING 9063
SWIDTH 12000 0
DWIDTH 24 0
BBX 20 18 2 0
BITMAP
FFFFF0
FFFFF0
FFFFF0
FFFFF0
FFFFF0
FFFFF0
FFFFF0
FFFFF0
FFFFF0
FFFFF0
FFFFF0
FFFFF0
FFFFF0
FFFFF0
FFFFF0
FFFFF0
FFFFF0
FFFFF0
ENDCHAR
STARTCHAR char8781
ENCODING 9064
SWIDTH 12000 0
DWIDTH 24 0
BBX 20 18 2 0
BITMAP
FFFFF0
FFFFF0
FFFFF0
FFFFF0
FFFFF0
FFFFF0
FFFFF0
FFFFF0
FFFFF0
FFFFF0
FFFFF0
FFFFF0
FFFFF0
FFFFF0
FFFFF0
FFFFF0
FFFFF0
FFFFF0
ENDCHAR
STARTCHAR char8782
ENCODING 9065
SWIDTH 12000 0
DWIDTH 24 0
BBX 20 18 2 0
BITMAP
FFFFF0
FFFFF0
FFFFF0
FFFFF0
FFFFF0
FFFFF0
FFFFF0
FFFFF0
FFFFF0
FFFFF0
FFFFF0
FFFFF0
FFFFF0
FFFFF0
FFFFF0
FFFFF0
FFFFF0
FFFFF0
ENDCHAR
STARTCHAR char8783
ENCODING 9066
SWIDTH 12000 0
DWIDTH 24 0
BBX 20 18 2 0
BITMAP
FFFFF0
FFFFF0
FFFFF0
FFFFF0
FFFFF0
FFFFF0
FFFFF0
FFFFF0
FFFFF0
FFFFF0
FFFFF0
FFFFF0
FFFFF0
FFFFF0
FFFFF0
FFFFF0
FFFFF0
FFFFF0
ENDCHAR
STARTCHAR char8779
ENCODING 9067
SWIDTH 12000 0
DWIDTH 24 0
BBX 20 18 2 0
BITMAP
FFFFF0
FFFFF0
FFFFF0
FFFFF0
FFFFF0
FFFFF0
FFFFF0
FFFFF0
FFFFF0
FFFFF0
FFFFF0
FFFFF0
FFFFF0
FFFFF0
FFFFF0
FFFFF0
FFFFF0
FFFFF0
ENDCHAR
STARTCHAR char8780
ENCODING 9068
SWIDTH 12000 0
DWIDTH 24 0
BBX 20 18 2 0
BITMAP
FFFFF0
FFFFF0
FFFFF0
FFFFF0
FFFFF0
FFFFF0
FFFFF0
FFFFF0
FFFFF0
FFFFF0
FFFFF0
FFFFF0
FFFFF0
FFFFF0
FFFFF0
FFFFF0
FFFFF0
FFFFF0
ENDCHAR
STARTCHAR char8781
ENCODING 9069
SWIDTH 12000 0
DWIDTH 24 0
BBX 20 18 2 0
BITMAP
FFFFF0
FFFFF0
FFFFF0
FFFFF0
FFFFF0
FFFFF0
FFFFF0
FFFFF0
FFFFF0
FFFFF0
FFFFF0
FFFFF0
FFFFF0
FFFFF0
FFFFF0
FFFFF0
FFFFF0
FFFFF0
ENDCHAR
STARTCHAR char8782
ENCODING 9070
SWIDTH 12000 0
DWIDTH 24 0
BBX 20 18 2 0
BITMAP
FFFFF0
FFFFF0
FFFFF0
FFFFF0
FFFFF0
FFFFF0
FFFFF0
FFFFF0
FFFFF0
FFFFF0
FFFFF0
FFFFF0
FFFFF0
FFFFF0
FFFFF0
FFFFF0
FFFFF0
FFFFF0
ENDCHAR
STARTCHAR char8783
ENCODING 9071
SWIDTH 12000 0
DWIDTH 24 0
BBX 20 18 2 0
BITMAP
FFFFF0
FFFFF0
FFFFF0
FFFFF0
FFFFF0
FFFFF0
FFFFF0
FFFFF0
FFFFF0
FFFFF0
FFFFF0
FFFFF0
FFFFF0
FFFFF0
FFFFF0
FFFFF0
FFFFF0
FFFFF0
ENDCHAR
STARTCHAR char8779
ENCODING 9072
SWIDTH 12000 0
DWIDTH 24 0
BBX 20 18 2 0
BITMAP
FFFFF0
FFFFF0
FFFFF0
FFFFF0
FFFFF0
FFFFF0
FFFFF0
FFFFF0
FFFFF0
FFFFF0
FFFFF0
FFFFF0
FFFFF0
FFFFF0
FFFFF0
FFFFF0
FFFFF0
FFFFF0
ENDCHAR
STARTCHAR char8780
ENCODING 9073
SWIDTH 12000 0
DWIDTH 24 0
BBX 20 18 2 0
BITMAP
FFFFF0
FFFFF0
FFFFF0
FFFFF0
FFFFF0
FFFFF0
FFFFF0
FFFFF0
FFFFF0
FFFFF0
FFFFF0
FFFFF0
FFFFF0
FFFFF0
FFFFF0
FFFFF0
FFFFF0
FFFFF0
ENDCHAR
STARTCHAR char8781
ENCODING 9074
SWIDTH 12000 0
DWIDTH 24 0
BBX 20 18 2 0
BITMAP
FFFFF0
FFFFF0
FFFFF0
FFFFF0
FFFFF0
FFFFF0
FFFFF0
FFFFF0
FFFFF0
FFFFF0
FFFFF0
FFFFF0
FFFFF0
FFFFF0
FFFFF0
FFFFF0
FFFFF0
FFFFF0
ENDCHAR
STARTCHAR char8782
ENCODING 9075
SWIDTH 12000 0
DWIDTH 24 0
BBX 20 18 2 0
BITMAP
FFFFF0
FFFFF0
FFFFF0
FFFFF0
FFFFF0
FFFFF0
FFFFF0
FFFFF0
FFFFF0
FFFFF0
FFFFF0
FFFFF0
FFFFF0
FFFFF0
FFFFF0
FFFFF0
FFFFF0
FFFFF0
ENDCHAR
STARTCHAR char8783
ENCODING 9076
SWIDTH 12000 0
DWIDTH 24 0
BBX 20 18 2 0
BITMAP
FFFFF0
FFFFF0
FFFFF0
FFFFF0
FFFFF0
FFFFF0
FFFFF0
FFFFF0
FFFFF0
FFFFF0
FFFFF0
FFFFF0
FFFFF0
FFFFF0
FFFFF0
FFFFF0
FFFFF0
FFFFF0
ENDCHAR
STARTCHAR char8779
ENCODING 9077
SWIDTH 12000 0
DWIDTH 24 0
BBX 20 18 2 0
BITMAP
FFFFF0
FFFFF0
FFFFF0
FFFFF0
FFFFF0
FFFFF0
FFFFF0
FFFFF0
FFFFF0
FFFFF0
FFFFF0
FFFFF0
FFFFF0
FFFFF0
FFFFF0
FFFFF0
FFFFF0
FFFFF0
ENDCHAR
STARTCHAR char8780
ENCODING 9078
SWIDTH 12000 0
DWIDTH 24 0
BBX 20 18 2 0
BITMAP
FFFFF0
FFFFF0
FFFFF0
FFFFF0
FFFFF0
FFFFF0
FFFFF0
FFFFF0
FFFFF0
FFFFF0
FFFFF0
FFFFF0
FFFFF0
FFFFF0
FFFFF0
FFFFF0
FFFFF0
FFFFF0
ENDCHAR
STARTCHAR char8781
ENCODING 9079
SWIDTH 12000 0
DWIDTH 24 0
BBX 20 18 2 0
BITMAP
FFFFF0
FFFFF0
FFFFF0
FFFFF0
FFFFF0
FFFFF0
FFFFF0
FFFFF0
FFFFF0
FFFFF0
FFFFF0
FFFFF0
FFFFF0
FFFFF0
FFFFF0
FFFFF0
FFFFF0
FFFFF0
ENDCHAR
STARTCHAR char8782
ENCODING 9080
SWIDTH 12000 0
DWIDTH 24 0
BBX 20 18 2 0
BITMAP
FFFFF0
FFFFF0
FFFFF0
FFFFF0
FFFFF0
FFFFF0
FFFFF0
FFFFF0
FFFFF0
FFFFF0
FFFFF0
FFFFF0
FFFFF0
FFFFF0
FFFFF0
FFFFF0
FFFFF0
FFFFF0
ENDCHAR
STARTCHAR char8783
ENCODING 9081
SWIDTH 12000 0
DWIDTH 24 0
BBX 20 18 2 0
BITMAP
FFFFF0
FFFFF0
FFFFF0
FFFFF0
FFFFF0
FFFFF0
FFFFF0
FFFFF0
FFFFF0
FFFFF0
FFFFF0
FFFFF0
FFFFF0
FFFFF0
FFFFF0
FFFFF0
FFFFF0
FFFFF0
ENDCHAR
STARTCHAR char8779
ENCODING 9082
SWIDTH 12000 0
DWIDTH 24 0
BBX 20 18 2 0
BITMAP
FFFFF0
FFFFF0
FFFFF0
FFFFF0
FFFFF0
FFFFF0
FFFFF0
FFFFF0
FFFFF0
FFFFF0
FFFFF0
FFFFF0
FFFFF0
FFFFF0
FFFFF0
FFFFF0
FFFFF0
FFFFF0
ENDCHAR
STARTCHAR char8780
ENCODING 9083
SWIDTH 12000 0
DWIDTH 24 0
BBX 20 18 2 0
BITMAP
FFFFF0
FFFFF0
FFFFF0
FFFFF0
FFFFF0
FFFFF0
FFFFF0
FFFFF0
FFFFF0
FFFFF0
FFFFF0
FFFFF0
FFFFF0
FFFFF0
FFFFF0
FFFFF0
FFFFF0
FFFFF0
ENDCHAR
STARTCHAR char8781
ENCODING 9084
SWIDTH 12000 0
DWIDTH 24 0
BBX 20 18 2 0
BITMAP
FFFFF0
FFFFF0
FFFFF0
FFFFF0
FFFFF0
FFFFF0
FFFFF0
FFFFF0
FFFFF0
FFFFF0
FFFFF0
FFFFF0
FFFFF0
FFFFF0
FFFFF0
FFFFF0
FFFFF0
FFFFF0
ENDCHAR
STARTCHAR char8782
ENCODING 9085
SWIDTH 12000 0
DWIDTH 24 0
BBX 20 18 2 0
BITMAP
FFFFF0
FFFFF0
FFFFF0
FFFFF0
FFFFF0
FFFFF0
FFFFF0
FFFFF0
FFFFF0
FFFFF0
FFFFF0
FFFFF0
FFFFF0
FFFFF0
FFFFF0
FFFFF0
FFFFF0
FFFFF0
ENDCHAR
STARTCHAR char8783
ENCODING 9086
SWIDTH 12000 0
DWIDTH 24 0
BBX 20 18 2 0
BITMAP
FFFFF0
FFFFF0
FFFFF0
FFFFF0
FFFFF0
FFFFF0
FFFFF0
FFFFF0
FFFFF0
FFFFF0
FFFFF0
FFFFF0
FFFFF0
FFFFF0
FFFFF0
FFFFF0
FFFFF0
FFFFF0
ENDCHAR
STARTCHAR char128
ENCODING 9249
SWIDTH 9500 0
DWIDTH 19 0
BBX 17 31 1 -9
BITMAP
3FFF80
7FFF80
01C380
02C380
02C380
046180
0C6180
782180
F82180
C01180
001180
001180
000080
000080
000080
000080
000080
000080
000080
000080
000080
000080
000080
000080
000080
000180
000280
000480
000E80
000380
000080
ENDCHAR
STARTCHAR char129
ENCODING 9250
SWIDTH 9500 0
DWIDTH 19 0
BBX 17 26 1 -4
BITMAP
1FFF80
3FFF00
E1FF00
C1C380
C18380
C30180
C30080
C20080
C20080
C2F880
C3FC80
C03E80
C00380
C00080
800080
800180
800280
800480
800C80
800680
800380
800080
800000
800000
800000
800000
ENDCHAR
STARTCHAR char130
ENCODING 9251
SWIDTH 9000 0
DWIDTH 18 0
BBX 16 31 1 -9
BITMAP
7FFF
FFFF
1FE3
38E3
6063
4073
C033
8033
BC33
7F13
FF91
81D1
0071
0031
0011
0001
0001
0001
0001
0001
0001
0001
0001
0001
0001
0003
0005
0009
001D
0007
0001
ENDCHAR
STARTCHAR char131
ENCODING 9252
SWIDTH 9000 0
DWIDTH 18 0
BBX 16 26 1 -4
BITMAP
3FF8
3FF8
0F80
0300
0100
0100
0100
01C0
06F8
083E
301F
E00F
3007
3803
1803
1C02
0E04
0F88
07F0
0018
0028
0048
0088
00C8
0038
0008
ENDCHAR
STARTCHAR char132
ENCODING 9253
SWIDTH 10000 0
DWIDTH 20 0
BBX 18 34 1 -12
BITMAP
0FF800
1FF800
31F800
401C00
401800
800800
C00800
E07E00
78FF00
391F80
320780
0203C0
0601C0
0701C0
07C1C0
03F1C0
01E180
000180
000300
000200
000600
000C00
000800
001000
001000
002000
002000
004000
00C000
014000
024000
064000
034000
00C000
ENDCHAR
STARTCHAR char133
ENCODING 9254
SWIDTH 8500 0
DWIDTH 17 0
BBX 15 35 1 -13
BITMAP
FFFC
FFFC
6000
E000
E000
E000
6000
60C0
67F8
2FFC
303E
101E
100E
100E
100E
080E
000C
0018
0018
0030
0020
0040
0040
0080
0100
0100
0200
0400
0C00
1C00
1400
2400
3400
0C00
0400
ENDCHAR
STARTCHAR char134
ENCODING 9255
SWIDTH 9500 0
DWIDTH 19 0
BBX 17 34 1 -12
BITMAP
7FFC00
7FFC00
1F8000
3C0000
300000
200000
400000
400000
400000
9FC000
FFE000
FFF800
00F800
003C00
001C00
000C00
000600
000600
000600
000200
000300
000100
000100
000100
000080
000080
000080
000080
000180
000280
000480
000880
000680
000180
ENDCHAR
STARTCHAR char135
ENCODING 9256
SWIDTH 9500 0
DWIDTH 19 0
BBX 17 30 1 -3
BITMAP
000080
000780
000F00
000800
000800
3FF800
3FF800
0F8000
030000
010000
010000
010000
03C000
06F800
083E00
301F00
E00F00
300700
380300
180300
1C0200
0E0400
0F8800
07F000
001000
003000
005000
009000
00D000
003000
ENDCHAR
STARTCHAR char136
ENCODING 9257
SWIDTH 10500 0
DWIDTH 21 0
BBX 19 31 1 -4
BITMAP
000120
0001E0
0003C0
000200
000200
3FFE00
3FFE00
07C000
018000
008000
008000
07F000
1FFE00
3FFF00
7FFF80
608180
C08080
808080
808080
808080
808080
408100
21E300
1E1C00
000400
000C00
001400
002400
006400
001C00
000400
ENDCHAR
STARTCHAR char137
ENCODING 9258
SWIDTH 9500 0
DWIDTH 19 0
BBX 17 33 1 -11
BITMAP
01FF80
03FF00
041F00
080700
100300
106100
21F900
23FE00
633E00
660E00
E40E00
E40F00
E21700
71E300
700300
780300
380100
0C0100
000100
000100
000080
000080
000080
000080
000080
000080
000080
000180
000280
000480
000E80
000380
000080
ENDCHAR
STARTCHAR char138
ENCODING 9259
SWIDTH 9000 0
DWIDTH 18 0
BBX 16 27 1 -5
BITMAP
7FFF
FFFF
000F
000F
0007
0007
3FC7
3FF7
7FF3
001B
0007
0003
0001
1F81
3FE1
7FF1
E039
0009
0005
0003
0001
0003
0005
0009
001D
0007
0001
ENDCHAR
STARTCHAR char139
ENCODING 9260
SWIDTH 10000 0
DWIDTH 20 0
BBX 18 27 1 -5
BITMAP
3FFC00
3FFC00
078000
03C000
00C000
00C000
004000
004000
000000
0FC000
3FE000
7FF800
E03C00
800E00
000600
000300
000180
000080
000040
000040
000040
0000C0
000140
000240
000740
0001C0
000040
ENDCHAR
STARTCHAR char140
ENCODING 9261
SWIDTH 10000 0
DWIDTH 20 0
BBX 18 27 1 -5
BITMAP
0FC1C0
1FC1C0
31C1C0
40C0C0
C040C0
8040C0
8040C0
C040C0
C040C0
E08040
708040
71C040
33F040
03F840
000440
000240
000140
0000C0
000040
000040
000040
0000C0
000140
000240
000640
000740
0001C0
ENDCHAR
STARTCHAR char162
ENCODING 9262
SWIDTH 10000 0
DWIDTH 20 0
BBX 18 31 2 -9
BITMAP
007FC0
00FFC0
01C1C0
0300C0
0300C0
0200C0
0200C0
0300C0
0300C0
0281C0
027FC0
3A3EC0
7E00C0
FF00C0
0300C0
0080C0
0040C0
0040C0
000040
000040
000040
000040
000040
0000C0
0001C0
000240
000440
000640
000340
0001C0
000040
ENDCHAR
STARTCHAR char142
ENCODING 9263
SWIDTH 9500 0
DWIDTH 19 0
BBX 17 28 1 -6
BITMAP
3FE380
7FC380
1F8780
1B8180
31E180
206180
403180
401980
401880
3C0C80
FF0480
FF8680
038280
01C280
006180
002180
000080
000080
000080
000080
000080
000180
000680
000880
001880
000E80
000380
000080
ENDCHAR
STARTCHAR char143
ENCODING 9264
SWIDTH 8500 0
DWIDTH 17 0
BBX 15 32 1 -10
BITMAP
7FF0
FFF0
1E00
3000
4000
4070
81FC
83FE
7A1E
FC0E
1E06
0F06
0706
030C
018C
0088
0010
0010
0020
0040
0040
0080
0080
0100
0300
0500
0900
1100
3900
0D00
0300
0100
ENDCHAR
STARTCHAR char144
ENCODING 9280
SWIDTH 10500 0
DWIDTH 21 0
BBX 19 26 1 -4
BITMAP
3FFF80
7FFF80
01C380
02C380
02C380
046180
0C6180
782180
F82180
C01180
001180
000180
000080
000080
000080
000080
000080
7C0080
4380A0
207F20
100040
0C0080
070180
03FF00
01FE00
007C00
ENDCHAR
STARTCHAR char145
ENCODING 9281
SWIDTH 10000 0
DWIDTH 20 0
BBX 18 26 1 -4
BITMAP
1FFF80
3FFF00
E1FF00
C1C380
C18380
C30180
C30080
C20080
C20080
C2F880
C3FC80
C03E80
C00380
C00080
800080
800080
9F0080
90E100
881E00
840040
830080
81C100
80FF00
807E00
803C00
800000
ENDCHAR
STARTCHAR char146
ENCODING 9282
SWIDTH 10000 0
DWIDTH 20 0
BBX 18 27 1 -5
BITMAP
7FFF00
FFFF00
1FE300
38E300
606300
407300
C03300
803300
BC3300
7F1300
FF9300
81D100
007100
003100
001100
000100
000100
000100
F00100
8F0240
40FC40
200080
180100
0E0300
07FE00
03FC00
00F800
ENDCHAR
STARTCHAR char147
ENCODING 9283
SWIDTH 11000 0
DWIDTH 22 0
BBX 20 27 1 -5
BITMAP
7FE380
7FC380
1C0380
380180
300180
200180
400180
400080
800080
9F8080
FFE080
7FF880
001C80
000680
000180
000080
000080
000080
000090
3F0090
20E120
101E40
080040
0E0080
078300
01FE00
00FC00
ENDCHAR
STARTCHAR char148
ENCODING 9284
SWIDTH 10000 0
DWIDTH 20 0
BBX 20 27 1 -5
BITMAP
7FE380
7FC380
1C0380
380780
301D80
207180
406180
40C080
408080
9F8080
FFE080
7FF880
001C80
000680
000180
000080
000080
000080
000090
3F0090
20E120
101E40
080040
0E0080
078300
01FE00
00FC00
ENDCHAR
STARTCHAR char149
ENCODING 9285
SWIDTH 11000 0
DWIDTH 22 0
BBX 20 27 1 -5
BITMAP
7FFF80
7FFF80
1C0780
380180
300180
200180
400180
400080
400080
9F8080
FFE080
7FF880
001C80
000680
000180
000080
000080
000080
000090
3F0090
20E120
101E40
080040
0E0080
078300
01FE00
00FC00
ENDCHAR
STARTCHAR char150
ENCODING 9286
SWIDTH 11000 0
DWIDTH 22 0
BBX 20 27 1 -5
BITMAP
7FE380
7FE380
7F0380
070180
030180
010180
1F0180
3FC080
7FE080
C0F080
C0B880
C09C80
410480
220280
1C0180
000080
000080
000080
000090
3F0090
20E120
101E40
080040
0E0080
078300
01FE00
00FC00
ENDCHAR
STARTCHAR char151
ENCODING 9287
SWIDTH 11000 0
DWIDTH 22 0
BBX 20 33 1 -11
BITMAP
7FE380
7FC380
1C0380
380780
301D80
207180
406180
40C080
408080
5F8080
FFE080
7FF880
001C80
000680
000180
000080
000080
000080
000090
3F0090
20E120
101E40
080040
0E0080
078380
01FE80
00FC80
000180
000280
000480
000E80
000380
000080
ENDCHAR
STARTCHAR char152
ENCODING 9296
SWIDTH 9500 0
DWIDTH 19 0
BBX 17 23 1 -1
BITMAP
3FFF80
7FFF80
01C380
02C380
00C380
046180
0C6180
782180
F82180
C01180
001180
000180
000080
000080
000080
000080
000080
000080
3E0080
7FE080
7FF880
001E80
000380
ENDCHAR
STARTCHAR char153
ENCODING 9297
SWIDTH 9500 0
DWIDTH 19 0
BBX 17 27 1 -5
BITMAP
1FFF80
3FFF00
E1FF00
C1C780
C18380
C30180
C30180
C20080
C20080
C20080
C2F080
C1FC80
C07E80
C00780
C00180
C00080
9FC080
9FF880
9FFC80
800680
800180
800080
800000
800000
800000
800000
800000
ENDCHAR
STARTCHAR char154
ENCODING 9298
SWIDTH 9000 0
DWIDTH 18 0
BBX 16 24 1 -2
BITMAP
7FFF
FFFF
1FE3
38E3
6063
4073
C033
8033
BC33
7F11
FF91
81D1
0071
0031
0011
0001
0001
0001
7C01
FFC1
FFF1
003D
0007
0001
ENDCHAR
STARTCHAR char155
ENCODING 9299
SWIDTH 9500 0
DWIDTH 19 0
BBX 17 31 2 -9
BITMAP
3FFF00
3FFF00
180000
380000
380000
380000
180000
183000
19FE00
0BFF00
0C0F80
040780
040380
040380
020380
020380
000300
000600
000600
000C00
000800
001000
001000
002000
004000
004000
788000
FF0000
FFC000
00F000
001800
ENDCHAR
STARTCHAR char156
ENCODING 9300
SWIDTH 8000 0
DWIDTH 16 0
BBX 14 26 1 -4
BITMAP
07FC
1FFC
201C
400C
400C
C00C
E01C
7FE4
7F84
1C04
3004
6004
4004
8004
BE04
FF84
FFE4
00F4
003C
000C
F004
FF04
FFC4
01E4
001C
0004
ENDCHAR
STARTCHAR char157
ENCODING 9301
SWIDTH 9000 0
DWIDTH 18 0
BBX 16 29 1 -7
BITMAP
7FFC
7FFC
1F80
3C00
3000
2000
4000
4000
4000
DFC0
FFF0
FFF8
00F8
003C
001C
000E
0006
0006
0006
0003
0003
0003
0001
3C01
7FC1
7FF1
003D
0007
0001
ENDCHAR
STARTCHAR char158
ENCODING 9302
SWIDTH 9500 0
DWIDTH 19 0
BBX 17 26 1 -4
BITMAP
7FE380
7FC380
1C0380
180180
300180
200180
600180
400080
400080
400080
8E0080
BFC080
FFF080
7FF880
001C80
000680
000280
000180
000080
000080
7F0080
7FE080
7FF880
001E80
000380
000080
ENDCHAR
STARTCHAR char159
ENCODING 9303
SWIDTH 9500 0
DWIDTH 19 0
BBX 17 26 1 -4
BITMAP
7FE380
7FC380
1C0180
180380
300F80
201D80
603080
406080
404080
408080
8E8080
BFC080
FFF080
7FF880
001C80
000480
000280
000180
000080
000080
7F0080
7FE080
7FF880
001E80
000380
000080
ENDCHAR
STARTCHAR char160
ENCODING 9304
SWIDTH 9500 0
DWIDTH 19 0
BBX 17 26 1 -4
BITMAP
7FFF80
7FFF80
1C0380
180180
300180
200180
600180
400080
400080
800080
8E0080
BFC080
FFF080
7FF880
001C80
000680
000280
000180
000080
000080
7F0080
7FE080
7FF880
001E80
000380
000080
ENDCHAR
STARTCHAR char161
ENCODING 9305
SWIDTH 9500 0
DWIDTH 19 0
BBX 17 26 1 -4
BITMAP
7FE380
7FE380
7F0380
070180
030180
010180
010180
1F0080
3FC080
7FE080
61F080
C07880
807880
405C80
408C80
210680
1E0280
000180
000080
000080
7F0080
7FE080
7FF880
001E80
000380
000080
ENDCHAR
STARTCHAR char162
ENCODING 9306
SWIDTH 10000 0
DWIDTH 20 0
BBX 18 29 1 -7
BITMAP
007FC0
00FFC0
01C1C0
0300C0
0300C0
0200C0
0200C0
0300C0
0300C0
0281C0
027FC0
3A3EC0
7E00C0
FF00C0
0300C0
0080C0
0040C0
0040C0
000040
000040
000040
000040
0F8040
0FF040
0FFC40
001E40
0003C0
0000C0
000040
ENDCHAR
STARTCHAR char163
ENCODING 9307
SWIDTH 9500 0
DWIDTH 19 0
BBX 17 24 1 -2
BITMAP
3FE380
7FC380
1F8380
1B8180
31E180
206180
403180
401980
401880
3C0C80
FF0480
FF8680
038280
01C280
006180
002180
000080
000080
780080
7FC080
7FF880
003C80
000380
000080
ENDCHAR
STARTCHAR char164
ENCODING 9308
SWIDTH 9500 0
DWIDTH 19 0
BBX 17 27 1 -5
BITMAP
1FFC00
3FFC00
078000
0C0000
100000
101C00
207F00
107F80
1E8780
3F0380
078180
03C180
01C180
00C300
006200
002600
000400
000800
001000
001000
002000
004000
7C8000
7F0000
FFC000
006000
001000
ENDCHAR
STARTCHAR char224
ENCODING 9309
SWIDTH 10000 0
DWIDTH 20 0
BBX 18 25 1 -3
BITMAP
3FFF00
7FFF00
3E0000
3C0000
300000
300000
600000
47FC00
5FFC00
7FFC00
400000
400000
400000
81C000
8FF000
BFF800
7FFC00
000600
000300
1E0100
7FE080
7FF880
001E40
000340
0000C0
ENDCHAR
STARTCHAR char225
ENCODING 9310
SWIDTH 11000 0
DWIDTH 22 0
BBX 20 30 1 -3
BITMAP
000010
0000F0
0001E0
000100
000100
3FFF00
7FFF00
3E0000
3C0000
300000
300000
600000
47FC00
5FFC00
7FFC00
400000
400000
400000
81C000
8FF000
BFF800
7FFC00
000600
000300
1E0100
7FE080
7FF840
001E40
000340
0000C0
ENDCHAR
STARTCHAR char165
ENCODING 9311
SWIDTH 9000 0
DWIDTH 18 0
BBX 16 30 1 -8
BITMAP
7FFF
FFFF
1FE3
38E3
6063
4073
C033
8033
BC33
FF13
FF93
81D1
0071
0031
0011
0001
0001
0001
7C01
FFC1
FFF1
003D
0007
0001
0003
0005
0009
0019
000D
0003
ENDCHAR
STARTCHAR char166
ENCODING 9312
SWIDTH 9500 0
DWIDTH 19 0
BBX 17 31 1 -9
BITMAP
3FFF80
7FFF80
01C380
02C380
04C180
3C6180
782180
F82180
801180
000980
000880
000080
000080
000080
07C380
0FC380
1FC380
21C380
40C180
404180
C04180
C04180
E04080
608080
710080
71E080
33F880
003C80
000280
000180
000080
ENDCHAR
STARTCHAR char167
ENCODING 9313
SWIDTH 9500 0
DWIDTH 19 0
BBX 17 31 1 -9
BITMAP
3FFF80
7FFF80
0FF180
183180
203180
401980
401980
4F9980
7FC980
7FE880
003880
001880
000880
000080
07C380
0FC380
1FC380
21C380
40C180
404180
C04180
C04180
E04080
608080
710080
71E080
33F880
003C80
000280
000180
000080
ENDCHAR
STARTCHAR char168
ENCODING 9314
SWIDTH 9500 0
DWIDTH 19 0
BBX 17 31 1 -9
BITMAP
7FFF80
7FFF80
1C0780
300180
200180
600180
400180
400080
4F0080
5FE080
7FF080
3FFC80
000680
000180
000080
07C380
0FC380
1FC380
21C380
40C180
404180
C04180
C04180
E04080
608080
718080
31E080
33F880
001E80
000380
000080
ENDCHAR
STARTCHAR char169
ENCODING 9315
SWIDTH 9500 0
DWIDTH 19 0
BBX 17 31 1 -9
BITMAP
3FFF80
7FFF80
000780
000380
000380
1FF180
1FF980
3FFF80
000180
000080
07C080
1FF080
7FFC80
FFFE80
000380
07C380
0FC380
1FC380
21C380
40C180
404180
C04180
C04180
E04080
608080
718080
31E080
33F880
001E80
000380
000080
ENDCHAR
STARTCHAR char170
ENCODING 9316
SWIDTH 10000 0
DWIDTH 20 0
BBX 18 31 1 -9
BITMAP
1FFE00
3FFE00
03C000
00C000
004000
004000
008000
07C000
1FF000
7FFC00
601E00
000700
000180
0000C0
07C380
0FC380
1FC380
21C380
40C180
404180
C04180
C04180
E04080
604080
718080
71E080
33F880
003C80
000280
000180
000080
ENDCHAR
STARTCHAR char171
ENCODING 9317
SWIDTH 9500 0
DWIDTH 19 0
BBX 17 31 1 -9
BITMAP
1FE380
3FE380
0F8380
19E180
107180
203180
201980
1E0C80
3F0480
7F8280
01C280
006180
002080
000080
07C380
0FC380
1FC380
21C380
40C180
404180
C04180
C04180
E04080
608080
710080
71E080
33F880
003C80
000280
000180
000080
ENDCHAR
STARTCHAR char172
ENCODING 9505
SWIDTH 9500 0
DWIDTH 19 0
BBX 17 27 1 -5
BITMAP
1FFE00
3FFE00
03C000
00C000
004000
3FFF80
7FFF80
7FFF80
03C380
02C380
046180
0C6180
7C2180
F82180
E01180
801180
001980
000080
000080
000080
000080
000080
000080
000080
000080
000080
000080
ENDCHAR
STARTCHAR char173
ENCODING 9506
SWIDTH 9000 0
DWIDTH 18 0
BBX 16 29 1 -7
BITMAP
3FFC
7FFC
0780
0180
0080
7FFF
FFFF
FFFF
38E3
3063
6073
4033
8033
9833
FF33
FF93
C3D1
0051
0031
0011
0001
0001
0001
0001
0001
0001
0001
0001
0001
ENDCHAR
STARTCHAR char174
ENCODING 9507
SWIDTH 9000 0
DWIDTH 18 0
BBX 16 23 1 -1
BITMAP
3FFC
7FFC
0780
0180
0080
7FFC
FFFC
FFFC
7800
7000
6000
4000
4000
8000
9F80
FFE0
FFF0
C0F8
0018
000C
0006
0002
0001
ENDCHAR
STARTCHAR char175
ENCODING 9508
SWIDTH 9500 0
DWIDTH 19 0
BBX 17 25 1 -3
BITMAP
1FFE00
3FFE00
03C000
00C000
004000
3FFF00
7FFF00
7FFE00
3C0000
300000
200000
67FC00
4FFC00
7FF800
600000
400000
400000
C3E000
9FF000
BFF800
FFFC00
000600
000300
000100
000080
ENDCHAR
STARTCHAR char176
ENCODING 9509
SWIDTH 10500 0
DWIDTH 21 0
BBX 19 34 1 -12
BITMAP
1FFE00
3FFE00
07C000
00C000
004000
004000
008000
008000
0FE000
3FF800
7C7C00
000E00
0FE300
1FF180
3FF040
403820
403000
803000
C07800
70FE00
737E00
321F00
040700
060380
070380
07C380
03E300
01C700
000600
000C00
001000
002000
004000
008000
ENDCHAR
STARTCHAR char177
ENCODING 9510
SWIDTH 8000 0
DWIDTH 16 0
BBX 14 33 1 -11
BITMAP
7FF8
FFF8
0F00
0300
0100
FFF8
FFF8
FFF8
E000
E000
E000
E000
67F0
6FF8
307C
203C
101C
101C
001C
0018
0018
0030
0020
0060
0040
0080
0080
0100
0100
0200
0400
0400
0800
ENDCHAR
STARTCHAR char178
ENCODING 9511
SWIDTH 9500 0
DWIDTH 19 0
BBX 17 33 1 -11
BITMAP
3FFC00
7FFC00
078000
018000
008000
7FFC00
FFF800
FFF800
3C0000
700000
600000
400000
800000
9F8000
7FE000
FFF000
03F800
007800
001C00
000C00
000C00
000400
000600
000200
000200
000200
000100
000100
000100
000080
000080
000080
000080
ENDCHAR
STARTCHAR char179
ENCODING 9512
SWIDTH 9500 0
DWIDTH 19 0
BBX 17 33 1 -11
BITMAP
3FFC00
3FF800
078000
018000
008000
3FFC00
3FF800
3FF800
078000
010000
010000
0F0000
3FC000
7FE000
77F000
807800
807800
805C00
408C00
3F0C00
000400
000400
000600
000200
000200
000200
000100
000100
000100
000100
000080
000080
000080
ENDCHAR
STARTCHAR char180
ENCODING 9513
SWIDTH 9500 0
DWIDTH 19 0
BBX 17 24 1 -2
BITMAP
3FFF00
3FFF00
03C000
00E000
006000
7FFF80
7FFF80
FFFF80
300380
200180
600180
400180
400180
800180
800180
BF8180
7FE080
FFF080
001880
000480
000280
000180
000080
000080
ENDCHAR
STARTCHAR char181
ENCODING 9514
SWIDTH 9500 0
DWIDTH 19 0
BBX 17 24 1 -2
BITMAP
7FE000
7FE000
1E0000
060000
020000
7FE380
7FC780
FFC780
0E0380
020180
020180
020180
3F0180
7FC180
E7E180
80F180
80B880
809880
C10C80
660480
180280
000180
000080
000080
ENDCHAR
STARTCHAR char182
ENCODING 9515
SWIDTH 9500 0
DWIDTH 19 0
BBX 17 24 1 -2
BITMAP
3FF800
3FF780
0F8780
038800
018800
3FFC00
3FF800
3FF800
038000
010000
008000
008000
01C000
02F800
043C00
181F00
E00F00
300780
180380
180300
0C0300
0E0600
070400
01F800
ENDCHAR
STARTCHAR char183
ENCODING 9516
SWIDTH 11000 0
DWIDTH 22 0
BBX 20 25 1 -3
BITMAP
1FFE10
3FFEF0
03C1E0
00C100
004100
3FFF00
7FFF00
7FFE00
3C0000
300000
200000
67FC00
4FFC00
7FF800
600000
400000
400000
83E000
9FF000
BFF800
FFFC00
000600
000300
000100
000080
ENDCHAR
STARTCHAR char184
ENCODING 9517
SWIDTH 9000 0
DWIDTH 18 0
BBX 16 35 1 -13
BITMAP
3FFC
7FFC
0780
0180
0080
7FFF
FFFF
FFFF
38E3
3063
6073
4033
8033
9833
7F33
FF93
C3D1
0051
0031
0011
0001
0001
0001
0001
0001
0001
0001
0001
0001
0003
0005
0009
001D
0007
0001
ENDCHAR
STARTCHAR char185
ENCODING 9518
SWIDTH 9500 0
DWIDTH 19 0
BBX 17 30 1 -8
BITMAP
3FF800
3FF780
0F8780
038800
018800
3FFC00
3FF800
3FF800
038000
010000
010000
010000
01C000
02F800
043C00
381F00
C00F00
300780
180380
180300
0C0300
0E0600
0F0400
07FC00
000C00
001400
002400
003400
000C00
000400
ENDCHAR
STARTCHAR char186
ENCODING 9520
SWIDTH 10500 0
DWIDTH 21 0
BBX 20 29 1 -7
BITMAP
1FFE00
3FFE00
03C000
00C000
004000
3FFF80
7FFF80
7FFF80
03C380
04C380
046180
0C6180
7C2180
F82180
E01180
801180
000180
000080
000080
000080
780080
470110
20FE20
100040
0C0080
070380
03FF00
01FE00
003800
ENDCHAR
STARTCHAR char187
ENCODING 9521
SWIDTH 10500 0
DWIDTH 21 0
BBX 19 30 1 -8
BITMAP
3FFC00
7FFC00
078000
018000
008000
7FFF00
FFFF00
FFFF00
38E300
306300
607300
403300
803300
803300
FF3300
FF9300
C3D100
005100
003100
001100
000100
F00100
8E0220
41FC40
200080
180100
0E0700
07FE00
03FC00
007000
ENDCHAR
STARTCHAR char188
ENCODING 9522
SWIDTH 10500 0
DWIDTH 21 0
BBX 19 29 1 -7
BITMAP
7FE000
7FE000
1E0000
060000
020000
7FE380
7FC780
FFC780
0E0380
020180
020180
3F0180
7FC180
FFE180
80F180
80B880
810C80
420480
3C0280
000180
000080
000080
7F00A0
20FF40
100080
0C0180
07CF00
03FE00
00F800
ENDCHAR
STARTCHAR char189
ENCODING 9536
SWIDTH 9500 0
DWIDTH 19 0
BBX 17 31 1 -9
BITMAP
0FC380
1FC380
31C380
40C180
404180
C04180
C04080
C04080
608080
708080
71E080
33FC80
027F80
000080
3FFF80
3FFF80
7FFF80
03C380
02C380
046180
7C6180
782180
F01180
001180
000180
000080
000080
000080
000080
000080
000080
ENDCHAR
STARTCHAR char190
ENCODING 9537
SWIDTH 9500 0
DWIDTH 19 0
BBX 17 32 1 -10
BITMAP
0FC380
1FC380
31C380
40C180
404180
C04180
C04080
C04080
608080
708080
71E080
33FC80
027F80
000080
3FFF80
3FFF80
7FFF80
0E7180
303180
203180
401980
4E1980
7F9980
7FC980
00E880
003880
000880
000080
000080
000080
000080
000080
ENDCHAR
STARTCHAR char191
ENCODING 9538
SWIDTH 10000 0
DWIDTH 20 0
BBX 18 31 1 -9
BITMAP
0FC380
1FC380
31C380
40C180
404180
C04180
C04180
C04080
608080
708080
71E080
33F880
027C80
000380
000080
1FFF80
1FFF00
3FFF00
1E0000
1C0000
180000
100000
100000
200000
2FF000
3FF800
7FFC00
001E00
000700
000180
000040
ENDCHAR
STARTCHAR char192
ENCODING 9539
SWIDTH 10000 0
DWIDTH 20 0
BBX 18 31 1 -9
BITMAP
0FC380
1FC380
31C380
40C180
404180
C04180
C04080
C04080
608080
708080
71E080
33FC80
027F80
000080
0FFF00
0FFF00
0FFF00
01E000
004000
000000
006000
00BC00
019F00
060780
3803C0
0C01C0
0600C0
0700C0
038180
03C300
01FC00
ENDCHAR
STARTCHAR char193
ENCODING 9540
SWIDTH 10500 0
DWIDTH 21 0
BBX 19 32 1 -10
BITMAP
0FC380
1FC380
31C380
40C180
404180
C04180
C04080
C04080
608080
708080
71E080
33FC80
027E80
000180
1FFFC0
1FFF80
1FFF80
0F0000
1C0000
180000
11FF00
17FE00
2FFE00
300000
200000
200000
41F000
4FFC00
5FFF00
7FFF80
000040
000020
ENDCHAR
STARTCHAR char194
ENCODING 9541
SWIDTH 9500 0
DWIDTH 19 0
BBX 17 36 1 -14
BITMAP
0FC380
1FC380
31C380
40C180
404180
C04180
C04080
C04080
604080
708080
71E080
33FC80
027E80
000180
0FFF00
1FFF00
1FFF00
1C0000
1C0000
1C0000
0C3E00
0CFF00
05FF80
060780
020380
020380
000380
000300
000600
000400
000C00
001800
001000
002000
004000
008000
ENDCHAR
STARTCHAR char195
ENCODING 9542
SWIDTH 10500 0
DWIDTH 21 0
BBX 19 36 1 -14
BITMAP
0FC380
1FC380
31C380
40C180
404180
C04180
C04080
C04080
608080
708080
71E080
33FC80
027F80
000080
0FFF00
1FFF00
1FFE00
078000
0E0000
080000
180000
100000
1FF800
1FFC00
07FE00
001F00
000700
000300
000180
000180
000080
0000C0
000040
000040
000020
000020
ENDCHAR
STARTCHAR char196
ENCODING 9543
SWIDTH 9500 0
DWIDTH 19 0
BBX 17 30 1 -8
BITMAP
0FC380
1FC380
31C380
40C180
404180
C04180
C04180
C04080
608080
708080
71E080
33F880
027C80
000380
000080
3FE380
3FE380
1C0380
180180
300180
200180
200180
400080
4F0080
3FE080
7FF080
3FFC80
000680
000380
000080
ENDCHAR
STARTCHAR char197
ENCODING 9544
SWIDTH 9500 0
DWIDTH 19 0
BBX 17 31 1 -9
BITMAP
0FC380
1FC380
31C380
40C180
404180
C04180
C04180
C04080
60C080
708080
71E080
33F880
027C80
000380
000080
3FFF80
3FFF80
1C0780
180180
300180
200180
200180
400080
4F0080
7FE080
7FF080
3FFC80
000680
000380
000180
000080
ENDCHAR
STARTCHAR char198
ENCODING 9545
SWIDTH 10000 0
DWIDTH 20 0
BBX 18 34 1 -12
BITMAP
0FC380
1FC380
31C380
40C180
404180
C04180
C04080
E04080
608080
718080
31F880
23FE80
000380
0FFE80
0FFE00
0FFE00
070000
040000
080000
081F80
103FC0
1FC7C0
0FC1C0
01E1C0
00E180
006180
003300
001200
000400
000400
000800
001000
002000
004000
ENDCHAR
STARTCHAR char199
ENCODING 9552
SWIDTH 9500 0
DWIDTH 19 0
BBX 17 31 1 -9
BITMAP
1FE380
3FE380
0F8380
19E180
107180
201980
3E0C80
7F0480
1F8280
01C180
006180
001080
000080
3FFF80
7FFF80
7FFF80
02C380
02C380
046180
3C6180
782180
F81180
801180
001180
000080
000080
000080
000080
000080
000080
000080
ENDCHAR
STARTCHAR char200
ENCODING 9553
SWIDTH 9000 0
DWIDTH 18 0
BBX 16 31 1 -9
BITMAP
3FC7
7FC7
1F07
33C3
20E3
4033
7C19
FE09
3F05
0383
00C3
0021
0001
7FFF
FFFF
FFFF
30E3
6063
4023
8033
8033
BE33
FF93
FFD1
00D1
0031
0011
0001
0001
0001
0001
ENDCHAR
STARTCHAR char201
ENCODING 9554
SWIDTH 10000 0
DWIDTH 20 0
BBX 18 28 1 -6
BITMAP
3FC700
7FC700
1F0F00
33C300
20E300
407300
7C1300
FE0900
1F0500
038300
00C100
000100
000100
3FFF00
3FFF00
7FFE00
1C0000
380000
300000
200000
200000
3FF000
7FF800
7FFC00
001E00
000300
000180
000040
ENDCHAR
STARTCHAR char202
ENCODING 9555
SWIDTH 9500 0
DWIDTH 19 0
BBX 17 34 1 -12
BITMAP
3FC700
7FC700
1F0700
31C300
206300
403100
7C1900
FF0D00
0F8500
01C300
002100
07E000
0FF000
1FF000
207800
403800
403000
403000
60FC00
797E00
321F00
120700
060380
070380
07C380
03E380
01C300
000600
000C00
000800
001000
002000
004000
008000
ENDCHAR
STARTCHAR char203
ENCODING 9556
SWIDTH 9500 0
DWIDTH 19 0
BBX 17 31 1 -9
BITMAP
3FC700
7FC700
1F0700
33C300
20E300
403300
781900
FE0900
3F0500
038300
00C100
000100
3FFF00
3FFE00
3FFE00
380000
380000
380000
187800
19FE00
0BFF00
0E0F00
0C0780
040380
040300
000700
000600
000C00
000800
001000
002000
ENDCHAR
STARTCHAR char204
ENCODING 9557
SWIDTH 10000 0
DWIDTH 20 0
BBX 18 35 1 -13
BITMAP
3FC700
7FC700
1F0700
33C300
20E300
403300
781900
FE0900
3F0500
038300
00C100
002100
3FFE00
3FFC00
7FFC00
1E0000
180000
300000
200000
200000
3FF000
7FF800
7FFC00
007C00
000E00
000600
000600
000300
000100
000100
000080
000080
000080
000040
000040
ENDCHAR
STARTCHAR char205
ENCODING 9558
SWIDTH 9500 0
DWIDTH 19 0
BBX 17 35 1 -13
BITMAP
3FC700
7FC700
1F0700
33C300
20E300
403300
781900
FE0900
3F0500
038300
00C100
002100
1FFD00
3FFC00
3FF800
038000
018000
008000
0FC000
3FE000
7FF000
40F800
407800
405C00
408C00
210C00
1E0600
000600
000200
000200
000100
000100
000100
000080
000080
ENDCHAR
STARTCHAR char206
ENCODING 9559
SWIDTH 9500 0
DWIDTH 19 0
BBX 17 28 1 -6
BITMAP
1FE380
3FE380
0F8780
19E180
307180
201980
3E0C80
7F0480
0F8280
01C180
006080
000080
000080
7FE380
7FE380
7FC380
180180
300180
200080
400080
400080
800080
DF8080
FFF080
7FF880
001C80
000380
000080
ENDCHAR
STARTCHAR char207
ENCODING 9560
SWIDTH 9500 0
DWIDTH 19 0
BBX 17 28 1 -6
BITMAP
1FE380
3FE380
0F8780
19E180
307180
201980
3E0C80
7F0480
0F8280
01C180
006080
000080
000000
7FFF80
7FFF80
7FFF80
180180
300180
200080
400080
400080
800080
9F8080
FFE080
7FF880
001C80
000380
000080
ENDCHAR
STARTCHAR char208
ENCODING 9561
SWIDTH 9500 0
DWIDTH 19 0
BBX 17 28 1 -6
BITMAP
1FE380
3FE380
0F8380
19E180
307180
201980
3E0C80
7F0480
0F8280
01C180
006080
3FF380
7FE380
7FE380
1F0180
030180
010180
010080
1F0080
3FC080
7FE080
C0F080
C0B880
C08C80
408680
230180
1C0080
000080
ENDCHAR
STARTCHAR char209
ENCODING 9562
SWIDTH 11500 0
DWIDTH 23 0
BBX 21 28 1 -6
BITMAP
7F8C00
7F1C00
3E1C00
278C00
61CC00
40E400
F86400
FC3400
3E1C78
070CF0
0185E0
000100
07FF80
07FF00
07FF00
00F000
002000
002000
003800
005F00
018FC0
0603E0
0E00F0
070060
030060
038040
01E080
00FF00
ENDCHAR
STARTCHAR char210
ENCODING 9568
SWIDTH 10500 0
DWIDTH 21 0
BBX 19 34 1 -12
BITMAP
1FE380
3FE380
0F8380
18E180
103180
201980
3E0C80
7F8480
07C280
00E180
003080
000080
000080
3FFF80
7FFF80
7FFF80
05C380
1CE180
786180
F82180
001180
001180
000080
000080
000080
000080
7E0080
21C320
103E40
0C0080
078380
03FF00
01FE00
003000
ENDCHAR
STARTCHAR char211
ENCODING 9569
SWIDTH 10500 0
DWIDTH 21 0
BBX 19 33 1 -11
BITMAP
3FC700
7FC700
1F0700
31C300
206300
403300
7C1900
FF0900
0F8500
01C300
000100
000100
7FFF00
FFFF00
FFFF00
30E300
606300
C03300
803300
FE3300
FF9300
FFD100
005100
003100
000100
000100
FE0120
41C240
303C80
1C0100
0F8E00
07FE00
01F800
ENDCHAR
STARTCHAR char212
ENCODING 9570
SWIDTH 10500 0
DWIDTH 21 0
BBX 19 34 1 -12
BITMAP
3FE380
3FC780
0F8780
19E180
207180
203980
7E0980
7F0480
07C280
00C180
002080
000080
3FE380
7FE380
7FC380
180380
300180
200180
400180
400080
9F8080
BFE080
7FF880
001C80
000380
000080
000080
7F0080
20E120
181E40
0E0080
07C700
03FF00
00FC00
ENDCHAR
STARTCHAR char213
ENCODING 9571
SWIDTH 11000 0
DWIDTH 22 0
BBX 20 34 1 -12
BITMAP
3FE380
3FC780
0F8780
19E180
207180
403980
7E0980
3F0480
07C280
00E080
001080
000080
3FFF80
7FFF80
7FFF80
180380
300180
200180
400180
400080
9F8080
BFE080
7FF880
3E1C80
000280
000180
000080
7F0090
20E120
181E40
0E0080
07C700
03FF00
00FC00
ENDCHAR
STARTCHAR char214
ENCODING 9572
SWIDTH 10500 0
DWIDTH 21 0
BBX 19 34 1 -12
BITMAP
3FE380
3FC780
0F8780
19E180
207180
201980
7E0D80
7F0480
07C280
00C180
002080
000080
7FE380
7FE380
7FC780
070180
030180
0F0180
3F8180
7FE080
E3F080
C0B880
C08C80
410280
3E0180
000080
000080
7E0080
21E120
181E40
0E0080
07C780
03FF00
00FC00
ENDCHAR
STARTCHAR char215
ENCODING 9584
SWIDTH 9500 0
DWIDTH 19 0
BBX 17 32 1 -10
BITMAP
1FE380
3FE380
0F8380
19E180
107180
201980
3E0C80
3F0480
1F8280
01C180
006180
001080
000080
3FFF80
7FFF80
7FFF80
02C380
04C380
046180
3C6180
782180
F81180
801180
001180
000080
000080
3F8080
7FF080
7FFC80
000E80
000180
000080
ENDCHAR
STARTCHAR char216
ENCODING 9585
SWIDTH 9000 0
DWIDTH 18 0
BBX 16 33 1 -11
BITMAP
3FC7
7FC7
1F07
33C3
20E3
4033
7C19
7E09
3F05
0383
00C3
0021
0001
7FFF
FFFF
FFFF
30E3
6063
4023
8033
8033
BE33
FF93
FFD1
00D1
0031
0011
7F01
FFE1
FFF9
001D
0003
0001
ENDCHAR
STARTCHAR char217
ENCODING 9586
SWIDTH 9000 0
DWIDTH 18 0
BBX 16 34 1 -12
BITMAP
3FC7
7FC7
1F07
33C3
20E3
4033
7819
FE09
3F05
0383
00C1
0021
1FFC
3FFC
3FF8
0380
0180
0000
0F80
3FE0
7FF0
40F8
4078
405C
408C
210C
1E06
0006
0002
3F82
3FE2
01F9
000D
0003
ENDCHAR
STARTCHAR char218
ENCODING 9587
SWIDTH 9500 0
DWIDTH 19 0
BBX 17 33 1 -11
BITMAP
1FE380
3FE380
0F8780
19E180
307180
201980
3E0C80
7F0480
0F8280
01C180
006080
000080
000080
7FE380
7FE380
7FC380
300180
200180
600080
400080
400080
5FC080
FFF080
FFF880
000E80
000380
000180
7E0080
7FC080
7FF080
003C80
000280
000180
ENDCHAR
STARTCHAR char219
ENCODING 9588
SWIDTH 9500 0
DWIDTH 19 0
BBX 17 33 1 -11
BITMAP
1FE380
3FE380
0F8780
19E180
307180
201980
3E0C80
7F0480
0F8280
01C180
006080
000080
000000
7FFF80
7FFF80
7FFF80
300180
200180
600080
400080
800080
9FC080
FFF080
FFF880
000E80
000380
000080
7E0080
7FC080
7FF080
003C80
000280
000180
ENDCHAR
STARTCHAR char220
ENCODING 9589
SWIDTH 9500 0
DWIDTH 19 0
BBX 17 33 1 -11
BITMAP
1FE380
3FE380
0F8780
19E180
307180
201980
3E0C80
7F0480
0F8280
01C180
006080
000080
000080
7FE380
7FE380
7FE380
070180
010180
0F0080
3FC080
7FE080
C1F080
C09880
C08C80
610280
3C0180
000080
7E0080
7FC080
7FF080
003C80
000280
000180
ENDCHAR
ENDFONT
